<svg width="24" height="25" viewBox="0 0 24 25" fill="none" xmlns="http://www.w3.org/2000/svg">
<path d="M22.501 12.7332C22.501 11.8699 22.4296 11.2399 22.2748 10.5865H12.2153V14.4832H18.12C18.001 15.4515 17.3582 16.9099 15.9296 17.8898L15.9096 18.0203L19.0902 20.435L19.3106 20.4565C21.3343 18.6249 22.501 15.9298 22.501 12.7332Z" fill="#4285F4"/>
<path d="M12.2147 23C15.1075 23 17.5361 22.0666 19.3099 20.4566L15.929 17.8898C15.0242 18.5082 13.8099 18.9399 12.2147 18.9399C9.38142 18.9399 6.97669 17.1082 6.11947 14.5765L5.99382 14.587L2.68656 17.0954L2.64331 17.2132C4.40519 20.6432 8.02423 23 12.2147 23Z" fill="#34A853"/>
<path d="M6.1201 14.5766C5.89391 13.9233 5.76301 13.2232 5.76301 12.4999C5.76301 11.7765 5.89391 11.0766 6.1082 10.4232L6.1022 10.2841L2.75349 7.73547L2.64393 7.78655C1.91777 9.2099 1.5011 10.8083 1.5011 12.4999C1.5011 14.1916 1.91777 15.7899 2.64393 17.2132L6.1201 14.5766Z" fill="#FBBC05"/>
<path d="M12.2148 6.05997C14.2267 6.05997 15.5838 6.91163 16.3576 7.62335L19.3814 4.73C17.5243 3.03834 15.1076 2 12.2148 2C8.02426 2 4.4052 4.35665 2.64331 7.78662L6.10759 10.4233C6.97672 7.89166 9.38146 6.05997 12.2148 6.05997Z" fill="#EB4335"/>
</svg>
