<svg width="762" height="657" viewBox="0 0 762 657" fill="none" xmlns="http://www.w3.org/2000/svg">
<g clip-path="url(#clip0_367_1845)">
<path d="M466.055 423.824C562.454 327.39 562.454 171.041 466.055 74.608C369.655 -21.825 213.36 -21.825 116.961 74.608C20.5614 171.041 20.5614 327.39 116.961 423.824C213.36 520.257 369.655 520.257 466.055 423.824Z" fill="#C9EAF7"/>
<path d="M570.806 475.151C660.79 475.151 733.737 402.179 733.737 312.164C733.737 222.148 660.79 149.177 570.806 149.177C480.822 149.177 407.876 222.148 407.876 312.164C407.876 402.179 480.822 475.151 570.806 475.151Z" fill="#C9EAF7"/>
<path d="M210.267 657C267.534 657 313.958 644.663 313.958 629.445C313.958 614.226 267.534 601.889 210.267 601.889C153.001 601.889 106.577 614.226 106.577 629.445C106.577 644.663 153.001 657 210.267 657Z" fill="#C9EAF7"/>
<path d="M582.923 657C640.19 657 686.614 644.663 686.614 629.445C686.614 614.226 640.19 601.889 582.923 601.889C525.657 601.889 479.233 614.226 479.233 629.445C479.233 644.663 525.657 657 582.923 657Z" fill="#C9EAF7"/>
<path d="M489.989 78.2871H301.431C304.087 62.4591 327.419 51.6171 342.29 57.6701C342.52 48.5661 345.57 40.6611 353.079 35.5761C356.879 33.0791 361.21 31.5081 365.727 30.9901C370.243 30.4711 374.818 31.0201 379.084 32.5911C381.806 13.9581 402.039 -0.901879 420.78 0.738121C439.521 2.37812 455.327 20.2731 454.704 39.0861C464.738 36.4781 477.019 41.3491 484.578 48.4521C492.137 55.5541 491.907 68.1011 489.989 78.2871Z" fill="#EEF8FD"/>
<path d="M572.775 111.402H706.896C704.994 100.134 688.402 92.4419 677.826 96.6409C677.679 90.1779 675.531 84.5519 670.169 80.9439C667.459 79.1569 664.367 78.0329 661.143 77.6629C657.919 77.2929 654.652 77.6859 651.607 78.8119C649.689 65.5749 635.31 54.9469 621.98 56.1279C608.65 57.3089 597.386 70.0199 597.861 83.4039C590.712 81.5509 581.99 85.0439 576.546 90.0629C571.102 95.0819 571.398 104.153 572.775 111.402Z" fill="#EEF8FD"/>
<path d="M0.853552 250.229H134.975C133.09 238.978 116.497 231.269 105.921 235.566C105.757 229.104 103.609 223.461 98.2474 219.853C95.5384 218.065 92.4454 216.942 89.2204 216.575C85.9954 216.207 82.7293 216.605 79.6873 217.737C77.7853 204.484 63.3894 193.872 50.0754 195.053C36.7616 196.234 25.4809 208.946 25.94 222.313C18.8076 220.476 10.0848 223.953 4.62475 228.972C-0.835249 233.991 -0.523748 242.98 0.853552 250.229Z" fill="#EEF8FD"/>
<path d="M651.066 410.067H761.414C759.856 400.8 746.198 394.469 737.491 397.995C737.36 392.681 735.606 388.056 731.195 385.087C728.968 383.615 726.425 382.689 723.772 382.384C721.12 382.079 718.433 382.404 715.93 383.332C714.291 372.425 702.518 363.65 691.549 364.666C686.074 365.339 681.034 367.992 677.38 372.125C673.725 376.259 671.708 381.586 671.709 387.104C665.823 385.579 658.592 388.433 654.214 392.583C649.837 396.732 649.935 404.097 651.066 410.067Z" fill="#EEF8FD"/>
<path d="M314.04 451.958C298.053 417.973 262.145 390.303 225.09 396.339C194.691 401.259 169.014 426.322 160.308 455.878C157.151 454.615 153.773 453.998 150.374 454.063C146.975 454.128 143.624 454.873 140.517 456.255C134.32 459.075 128.746 463.101 124.121 468.098C119.432 472.871 115.119 478.218 112.889 484.5C110.66 490.782 107.692 501.968 111.414 507.463C105.117 509.178 99.2374 512.162 94.1354 516.233C89.0334 520.304 84.8184 525.376 81.7464 531.136C78.6754 536.896 76.8144 543.224 76.2764 549.73C75.7394 556.236 76.5374 562.784 78.6214 568.97H332.272C331.977 531.59 330.01 485.927 314.04 451.958Z" fill="#F7B15E"/>
<path d="M486.677 451.958C502.663 417.973 538.572 390.303 575.628 396.339C606.027 401.259 631.702 426.322 640.409 455.878C643.565 454.615 646.944 453.998 650.343 454.063C653.742 454.128 657.094 454.873 660.2 456.255C666.397 459.075 671.971 463.101 676.596 468.098C681.286 472.871 685.598 478.218 687.828 484.5C690.058 490.782 693.009 501.968 689.304 507.463C695.6 509.178 701.479 512.162 706.581 516.233C711.683 520.304 715.9 525.376 718.971 531.136C722.042 536.896 723.902 543.224 724.44 549.73C724.977 556.236 724.18 562.784 722.096 568.97L468.854 567.166C469.133 529.72 470.707 485.927 486.677 451.958Z" fill="#F7B15E"/>
<path d="M102.216 538.725C106.001 549.049 110.302 559.177 115.104 569.069H144.076C141.518 554.307 136.78 542.087 133.304 532.328C124.605 508.618 113.623 485.81 100.511 464.227C89.0335 445.397 79.3265 432.965 77.7195 433.686C75.8175 434.556 77.9825 449.203 82.4915 469.41C87.7115 492.879 94.2975 516.024 102.216 538.725Z" fill="#0F6868"/>
<path d="M93.7885 475.561C97.1435 483.773 100.423 492.017 103.625 500.295C110.118 516.828 116.251 533.465 122.022 550.206C124.17 556.472 126.252 562.737 128.335 569.003H130.253C125.782 555.149 121.022 541.371 115.972 527.67C109.927 510.984 103.483 494.439 96.6415 478.037C92.8045 468.803 89.0005 459.519 84.6225 450.515C84.6025 450.444 84.5685 450.379 84.5215 450.323C84.4745 450.267 84.4155 450.222 84.3495 450.191C84.2835 450.16 84.2115 450.144 84.1385 450.143C84.0645 450.142 83.9925 450.157 83.9255 450.187C83.8595 450.217 83.7995 450.261 83.7515 450.316C83.7035 450.371 83.6675 450.435 83.6465 450.505C83.6255 450.575 83.6195 450.649 83.6295 450.721C83.6395 450.794 83.6655 450.863 83.7045 450.925C86.9015 459.224 90.5085 467.343 93.7885 475.561Z" fill="#30A9A0"/>
<path d="M153.127 569.069C155.8 552.667 156.259 538.036 156.98 526.325C160.735 465.178 154.291 389.745 150.717 389.532C146.634 389.286 129.664 457.781 125.909 518.928C124.977 535.633 125.12 552.381 126.335 569.069H153.127Z" fill="#0F6868"/>
<path d="M139.533 569.069C140.763 550.42 141.845 531.738 142.993 513.072C144.305 491.454 145.6 469.831 146.879 448.202C147.6 436.015 148.519 423.829 148.797 411.626C148.797 410.74 147.879 410.691 147.797 411.626C146.764 422.402 146.158 433.227 145.485 444.036C144.813 454.845 144.092 465.654 143.419 476.463C142.075 498.092 140.736 519.715 139.402 541.333C138.845 550.6 138.271 559.867 137.763 569.118L139.533 569.069Z" fill="#30A9A0"/>
<path d="M179.688 530.081C183.78 543.457 188.911 556.493 195.035 569.069H218.4L222.679 567.625C219.63 550.928 214.661 536.921 211.3 525.767C203.381 499.672 192.953 471.099 184.394 448.858C175.835 426.617 168.949 410.855 167.161 411.232C165.374 411.609 164.095 427.814 165.718 450.744C167.568 477.609 172.25 504.202 179.688 530.081Z" fill="#0F6868"/>
<path d="M176.114 459.683C178.409 469.186 180.803 478.655 183.295 488.092C188.313 506.965 193.745 525.729 199.593 544.384C202.184 552.585 204.824 560.884 207.611 569.069H209.513C204.102 552.585 198.823 536.035 193.937 519.371C188.427 500.656 183.361 481.826 178.59 462.898C175.933 452.237 173.539 441.576 170.752 430.865C170.555 430.094 169.637 430.307 169.768 431.095C171.539 440.69 173.802 450.154 176.114 459.683Z" fill="#30A9A0"/>
<path d="M236.109 569.069C241.306 554.586 244.192 541.333 246.93 530.819C253.981 503.575 259.965 472.772 264.113 448.579C268.261 424.386 270.343 406.836 268.622 406.246C266.9 405.655 257.522 419.499 247.094 440.69C234.846 465.445 225.022 491.328 217.76 517.976C213.539 534.368 210.796 551.105 209.562 567.986L214.35 569.102L236.109 569.069Z" fill="#0F6868"/>
<path d="M222.204 569.069C226.5 551.355 230.845 533.64 235.55 516.025C240.682 496.637 246.175 477.316 251.947 458.093C255.226 447.251 258.686 436.475 261.785 425.6C262.014 424.813 261.112 424.518 260.834 425.289C257.423 434.736 254.472 444.348 251.537 453.959C248.602 463.571 245.7 473.182 242.945 482.843C237.392 502.143 232.162 521.536 227.254 541.021C224.926 550.354 222.63 559.703 220.466 569.069H222.204Z" fill="#30A9A0"/>
<path d="M595.122 569.069C601.763 558.309 607.009 548.435 611.797 540.545C618.848 528.884 626.308 516.566 633.801 504.723C641.294 492.881 648.771 481.482 655.51 471.542C662.249 461.602 668.266 453.155 672.332 446.939C676.399 440.723 678.727 436.852 678.104 436.179C676.809 434.752 661.888 442.215 643.377 457.223C632.986 465.622 623.257 474.807 614.273 484.697C604.342 495.563 595.414 507.306 587.596 519.781C585.957 522.454 584.137 525.62 582.185 529.13C580.234 532.64 578.316 536.593 576.397 540.71C574.479 544.826 572.594 549.173 570.97 553.618C570.134 555.816 569.331 558.03 568.576 560.179C567.822 562.327 567.183 564.607 566.543 566.74L571.298 569.003L595.122 569.069Z" fill="#0F6868"/>
<path d="M579.415 569.069C595.903 535.365 616.447 503.803 640.59 475.085C647.837 466.507 655.543 458.306 663.086 449.99C663.643 449.383 662.971 448.727 662.364 449.285C655.15 456.19 648.329 463.554 641.836 471.149C638.557 474.888 635.392 478.808 632.162 482.63L627.522 488.518L625.194 491.471L622.948 494.439C616.881 502.378 611.224 510.661 605.682 519.043C600.14 527.424 595.008 535.969 590.106 544.695C585.646 552.7 581.383 560.819 577.415 569.069H579.415Z" fill="#30A9A0"/>
<path d="M653.527 531.098C655.667 543.889 658.458 556.562 661.889 569.069H689.271C689.271 554.159 686.943 541.185 685.319 530.786C680.923 504.606 673.908 478.934 664.381 454.156C656.183 432.555 648.264 417.957 646.575 418.416C644.558 418.957 644.492 434.441 645.706 456.141C646.919 477.841 649.428 505.462 653.527 531.098Z" fill="#0F6868"/>
<path d="M655.97 464.555C657.987 473.642 659.839 482.778 661.61 491.914C665.206 510.185 668.316 528.523 670.94 546.926C671.989 554.274 672.956 561.688 673.907 569.003H675.727C673.88 553.454 671.639 537.96 669.005 522.52C665.955 504.117 662.348 485.812 658.331 467.589C656.052 457.338 653.773 447.054 650.838 436.983C650.625 436.245 649.706 436.475 649.87 437.213C651.756 446.414 654.002 455.452 655.97 464.555Z" fill="#30A9A0"/>
<path d="M710.405 569.069C713.879 559.961 716.792 550.649 719.128 541.185C731.392 497.277 735.704 440.706 732.245 439.788C728.326 438.673 702.092 484.91 689.942 528.687C686.403 541.704 684.108 555.027 683.088 568.478L685.22 569.069H710.405Z" fill="#0F6868"/>
<path d="M695.977 569.069C699.863 555.504 703.601 541.874 707.454 528.277L720.358 481.728C722.752 472.986 725.277 464.276 727.343 455.485C727.355 455.365 727.324 455.245 727.255 455.146C727.187 455.047 727.086 454.976 726.97 454.944C726.854 454.913 726.731 454.924 726.622 454.975C726.513 455.025 726.426 455.113 726.376 455.222C723.867 462.865 721.785 470.656 719.588 478.398L713.029 501.624L700.027 548.14C698.07 555.127 696.13 562.12 694.206 569.118L695.977 569.069Z" fill="#30A9A0"/>
<path d="M508.467 76.499H299.48C285.462 76.499 274.098 87.867 274.098 101.889V571.955C274.098 585.978 285.462 597.346 299.48 597.346H508.467C522.485 597.346 533.849 585.978 533.849 571.955V101.889C533.849 87.867 522.485 76.499 508.467 76.499Z" fill="#4F85AA"/>
<path d="M502.958 94.0981H309.4C298.533 94.0981 289.724 102.911 289.724 113.781V557.423C289.724 568.294 298.533 577.106 309.4 577.106H502.958C513.825 577.106 522.634 568.294 522.634 557.423V113.781C522.634 102.911 513.825 94.0981 502.958 94.0981Z" fill="#83B4E0"/>
<path d="M425.732 82.1411H379.249C378.398 82.1411 377.708 82.8321 377.708 83.6831V84.1421C377.708 84.9941 378.398 85.6841 379.249 85.6841H425.732C426.584 85.6841 427.273 84.9941 427.273 84.1421V83.6831C427.273 82.8321 426.584 82.1411 425.732 82.1411Z" fill="#83B4E0"/>
<path d="M371.41 84.503C371.41 85.204 371.204 85.889 370.815 86.471C370.425 87.054 369.872 87.508 369.225 87.776C368.578 88.044 367.866 88.115 367.179 87.978C366.492 87.841 365.861 87.504 365.366 87.008C364.87 86.513 364.533 85.882 364.396 85.194C364.26 84.507 364.33 83.795 364.598 83.147C364.866 82.5 365.32 81.947 365.902 81.557C366.485 81.168 367.169 80.96 367.87 80.96C368.809 80.96 369.71 81.334 370.374 81.998C371.038 82.662 371.41 83.564 371.41 84.503Z" fill="#83B4E0"/>
<path d="M439.078 88.046C441.034 88.046 442.62 86.46 442.62 84.503C442.62 82.547 441.034 80.96 439.078 80.96C437.122 80.96 435.536 82.547 435.536 84.503C435.536 86.46 437.122 88.046 439.078 88.046Z" fill="#83B4E0"/>
<path d="M484.119 131.823H330.6C319.733 131.823 310.924 140.635 310.924 151.506V527.703C310.924 538.573 319.733 547.385 330.6 547.385H484.119C494.985 547.385 503.794 538.573 503.794 527.703V151.506C503.794 140.635 494.985 131.823 484.119 131.823Z" fill="#4186C6"/>
<path d="M459.344 245.899H349.49V355.793H459.344V245.899Z" fill="#EEF8FD"/>
<path d="M473.724 370.178H437.209V362.141H465.689V337.193H473.724V370.178Z" fill="#EEF8FD"/>
<path d="M473.724 269.748H465.689V239.552H432.569V231.531H473.724V269.748Z" fill="#EEF8FD"/>
<path d="M343.143 268.911H335.125V231.531H375.69V239.552H343.143V268.911Z" fill="#EEF8FD"/>
<path d="M378.215 370.178H335.125V336.767H343.143V362.141H378.215V370.178Z" fill="#EEF8FD"/>
<path d="M465.395 410.117H353.407C351.522 410.117 349.98 411.019 349.98 412.15V435.113C349.98 436.229 351.522 437.147 353.407 437.147H465.395C467.281 437.147 468.805 436.229 468.805 435.113V412.15C468.805 411.019 467.281 410.117 465.395 410.117Z" fill="#EEF8FD"/>
<path d="M363.126 417.346V422.906H362.215V419.098L360.518 422.906H359.887L358.182 419.098V422.906H357.271V417.346H358.255L360.207 421.706L362.151 417.346H363.126ZM368.366 420.594C368.366 420.759 368.354 420.908 368.333 421.042H364.966C364.992 421.394 365.123 421.676 365.358 421.89C365.592 422.103 365.879 422.21 366.221 422.21C366.711 422.21 367.059 422.004 367.262 421.594H368.246C368.112 421.999 367.87 422.332 367.518 422.594C367.171 422.85 366.738 422.978 366.221 422.978C365.799 422.978 365.422 422.884 365.086 422.698C364.755 422.506 364.494 422.239 364.302 421.898C364.115 421.551 364.022 421.151 364.022 420.698C364.022 420.244 364.112 419.847 364.294 419.506C364.48 419.159 364.739 418.892 365.07 418.706C365.406 418.519 365.789 418.426 366.221 418.426C366.637 418.426 367.007 418.516 367.333 418.698C367.658 418.879 367.912 419.135 368.094 419.466C368.275 419.791 368.366 420.167 368.366 420.594ZM367.414 420.306C367.408 419.97 367.287 419.7 367.053 419.498C366.818 419.295 366.528 419.194 366.182 419.194C365.867 419.194 365.598 419.295 365.374 419.498C365.15 419.695 365.016 419.964 364.974 420.306H367.414ZM368.958 420.682C368.958 420.239 369.049 419.847 369.23 419.506C369.417 419.164 369.669 418.9 369.983 418.714C370.303 418.522 370.658 418.426 371.047 418.426C371.335 418.426 371.618 418.49 371.895 418.618C372.178 418.74 372.401 418.906 372.566 419.114V416.986H373.487V422.906H372.566V422.242C372.417 422.455 372.21 422.631 371.943 422.77C371.682 422.908 371.381 422.978 371.039 422.978C370.655 422.978 370.303 422.882 369.983 422.69C369.669 422.492 369.417 422.22 369.23 421.874C369.049 421.522 368.958 421.124 368.958 420.682ZM372.566 420.698C372.566 420.394 372.503 420.13 372.375 419.906C372.253 419.682 372.09 419.511 371.887 419.394C371.685 419.276 371.465 419.218 371.23 419.218C370.996 419.218 370.777 419.276 370.574 419.394C370.372 419.506 370.206 419.674 370.078 419.898C369.956 420.116 369.895 420.378 369.895 420.682C369.895 420.986 369.956 421.252 370.078 421.482C370.206 421.711 370.372 421.887 370.574 422.01C370.782 422.127 371.001 422.186 371.23 422.186C371.465 422.186 371.685 422.127 371.887 422.01C372.09 421.892 372.253 421.722 372.375 421.498C372.503 421.268 372.566 421.002 372.566 420.698ZM378.595 422.962C378.222 422.962 377.886 422.898 377.587 422.77C377.289 422.636 377.054 422.45 376.883 422.21C376.713 421.97 376.626 421.69 376.626 421.37H377.603C377.625 421.61 377.718 421.807 377.883 421.962C378.054 422.116 378.291 422.194 378.595 422.194C378.91 422.194 379.155 422.119 379.331 421.97C379.507 421.815 379.595 421.618 379.595 421.378C379.595 421.191 379.539 421.039 379.427 420.922C379.321 420.804 379.184 420.714 379.018 420.65C378.858 420.586 378.634 420.516 378.346 420.442C377.984 420.346 377.688 420.25 377.458 420.154C377.234 420.052 377.043 419.898 376.883 419.69C376.723 419.482 376.643 419.204 376.643 418.858C376.643 418.538 376.723 418.258 376.883 418.018C377.043 417.778 377.267 417.594 377.555 417.466C377.843 417.338 378.177 417.274 378.555 417.274C379.094 417.274 379.534 417.41 379.875 417.682C380.222 417.948 380.414 418.316 380.451 418.786H379.443C379.427 418.583 379.331 418.41 379.155 418.266C378.979 418.122 378.746 418.05 378.458 418.05C378.197 418.05 377.985 418.116 377.819 418.25C377.654 418.383 377.57 418.575 377.57 418.826C377.57 418.996 377.622 419.138 377.723 419.25C377.83 419.356 377.962 419.442 378.122 419.506C378.282 419.57 378.502 419.639 378.779 419.714C379.147 419.815 379.445 419.916 379.674 420.018C379.909 420.119 380.107 420.276 380.267 420.49C380.433 420.698 380.514 420.978 380.514 421.33C380.514 421.612 380.438 421.879 380.283 422.13C380.134 422.38 379.912 422.583 379.618 422.738C379.33 422.887 378.99 422.962 378.595 422.962ZM381.286 420.698C381.286 420.244 381.378 419.847 381.559 419.506C381.746 419.159 382.002 418.892 382.327 418.706C382.653 418.519 383.026 418.426 383.447 418.426C383.981 418.426 384.421 418.554 384.767 418.81C385.119 419.06 385.357 419.42 385.479 419.89H384.495C384.415 419.671 384.287 419.5 384.111 419.378C383.935 419.255 383.714 419.194 383.447 419.194C383.074 419.194 382.775 419.327 382.551 419.594C382.333 419.855 382.223 420.223 382.223 420.698C382.223 421.172 382.333 421.543 382.551 421.81C382.775 422.076 383.074 422.21 383.447 422.21C383.975 422.21 384.325 421.978 384.495 421.514H385.479C385.351 421.962 385.111 422.319 384.759 422.586C384.407 422.847 383.97 422.978 383.447 422.978C383.026 422.978 382.653 422.884 382.327 422.698C382.002 422.506 381.746 422.239 381.559 421.898C381.378 421.551 381.286 421.151 381.286 420.698ZM386.083 420.682C386.083 420.239 386.174 419.847 386.355 419.506C386.542 419.164 386.794 418.9 387.108 418.714C387.428 418.522 387.78 418.426 388.164 418.426C388.511 418.426 388.812 418.495 389.068 418.634C389.33 418.767 389.537 418.935 389.691 419.138V418.498H390.612V422.906H389.691V422.25C389.537 422.458 389.327 422.631 389.06 422.77C388.794 422.908 388.489 422.978 388.147 422.978C387.769 422.978 387.423 422.882 387.108 422.69C386.794 422.492 386.542 422.22 386.355 421.874C386.174 421.522 386.083 421.124 386.083 420.682ZM389.691 420.698C389.691 420.394 389.628 420.13 389.5 419.906C389.378 419.682 389.215 419.511 389.012 419.394C388.81 419.276 388.59 419.218 388.355 419.218C388.121 419.218 387.902 419.276 387.699 419.394C387.497 419.506 387.331 419.674 387.203 419.898C387.081 420.116 387.02 420.378 387.02 420.682C387.02 420.986 387.081 421.252 387.203 421.482C387.331 421.711 387.497 421.887 387.699 422.01C387.907 422.127 388.126 422.186 388.355 422.186C388.59 422.186 388.81 422.127 389.012 422.01C389.215 421.892 389.378 421.722 389.5 421.498C389.628 421.268 389.691 421.002 389.691 420.698ZM394.034 418.426C394.381 418.426 394.69 418.498 394.962 418.642C395.239 418.786 395.454 418.999 395.609 419.282C395.764 419.564 395.841 419.906 395.841 420.306V422.906H394.938V420.442C394.938 420.047 394.839 419.746 394.642 419.538C394.445 419.324 394.174 419.218 393.833 419.218C393.492 419.218 393.221 419.324 393.018 419.538C392.821 419.746 392.721 420.047 392.721 420.442V422.906H391.81V418.498H392.721V419.002C392.87 418.82 393.061 418.679 393.29 418.578C393.525 418.476 393.773 418.426 394.034 418.426ZM399.229 418.426C399.576 418.426 399.884 418.498 400.156 418.642C400.434 418.786 400.651 418.999 400.805 419.282C400.96 419.564 401.036 419.906 401.036 420.306V422.906H400.133V420.442C400.133 420.047 400.035 419.746 399.837 419.538C399.64 419.324 399.371 419.218 399.029 419.218C398.688 419.218 398.415 419.324 398.212 419.538C398.015 419.746 397.917 420.047 397.917 420.442V422.906H397.005V418.498H397.917V419.002C398.067 418.82 398.255 418.679 398.484 418.578C398.719 418.476 398.968 418.426 399.229 418.426ZM402.665 417.914C402.499 417.914 402.361 417.858 402.249 417.746C402.137 417.634 402.081 417.495 402.081 417.33C402.081 417.164 402.137 417.026 402.249 416.914C402.361 416.802 402.499 416.746 402.665 416.746C402.825 416.746 402.961 416.802 403.073 416.914C403.185 417.026 403.241 417.164 403.241 417.33C403.241 417.495 403.185 417.634 403.073 417.746C402.961 417.858 402.825 417.914 402.665 417.914ZM403.113 418.498V422.906H402.201V418.498H403.113ZM406.534 418.426C406.881 418.426 407.19 418.498 407.462 418.642C407.739 418.786 407.954 418.999 408.109 419.282C408.264 419.564 408.341 419.906 408.341 420.306V422.906H407.438V420.442C407.438 420.047 407.339 419.746 407.142 419.538C406.945 419.324 406.674 419.218 406.333 419.218C405.992 419.218 405.721 419.324 405.518 419.538C405.321 419.746 405.221 420.047 405.221 420.442V422.906H404.31V418.498H405.221V419.002C405.37 418.82 405.561 418.679 405.79 418.578C406.025 418.476 406.273 418.426 406.534 418.426ZM411.281 418.426C411.623 418.426 411.924 418.495 412.185 418.634C412.452 418.767 412.66 418.935 412.809 419.138V418.498H413.729V422.978C413.729 423.383 413.644 423.743 413.473 424.058C413.303 424.378 413.055 424.628 412.729 424.81C412.409 424.991 412.025 425.082 411.577 425.082C410.98 425.082 410.484 424.94 410.089 424.658C409.695 424.38 409.471 424.002 409.417 423.522H410.32C410.39 423.751 410.536 423.935 410.76 424.074C410.99 424.218 411.263 424.29 411.577 424.29C411.945 424.29 412.241 424.178 412.465 423.954C412.695 423.73 412.809 423.404 412.809 422.978V422.242C412.655 422.45 412.444 422.626 412.177 422.77C411.916 422.908 411.617 422.978 411.281 422.978C410.897 422.978 410.545 422.882 410.225 422.69C409.911 422.492 409.66 422.22 409.473 421.874C409.292 421.522 409.201 421.124 409.201 420.682C409.201 420.239 409.292 419.847 409.473 419.506C409.66 419.164 409.911 418.9 410.225 418.714C410.545 418.522 410.897 418.426 411.281 418.426ZM412.809 420.698C412.809 420.394 412.745 420.13 412.617 419.906C412.495 419.682 412.332 419.511 412.129 419.394C411.927 419.276 411.708 419.218 411.473 419.218C411.239 419.218 411.019 419.276 410.816 419.394C410.614 419.506 410.448 419.674 410.32 419.898C410.198 420.116 410.137 420.378 410.137 420.682C410.137 420.986 410.198 421.252 410.32 421.482C410.448 421.711 410.614 421.887 410.816 422.01C411.024 422.127 411.244 422.186 411.473 422.186C411.708 422.186 411.927 422.127 412.129 422.01C412.332 421.892 412.495 421.722 412.617 421.498C412.745 421.268 412.809 421.002 412.809 420.698Z" fill="#4186C6"/>
<path d="M336.453 90.6382V95.5582C336.453 98.2332 337.516 100.799 339.407 102.691C341.298 104.583 343.863 105.645 346.537 105.645H461.311C463.986 105.645 466.551 104.583 468.442 102.691C470.333 100.799 471.395 98.2332 471.395 95.5582V90.6382H336.453Z" fill="#4F85AA"/>
<g opacity="0.33">
<path d="M304.005 360.468C302.955 360.473 301.927 360.165 301.054 359.582C299.872 358.794 299.051 357.569 298.771 356.176C298.492 354.782 298.776 353.335 299.562 352.152L454.507 119.604C454.897 119.019 455.398 118.517 455.982 118.125C456.565 117.734 457.22 117.462 457.909 117.324C458.598 117.186 459.308 117.186 459.997 117.322C460.686 117.458 461.342 117.729 461.926 118.119C462.511 118.509 463.013 119.01 463.404 119.594C463.795 120.178 464.067 120.834 464.205 121.523C464.343 122.212 464.343 122.922 464.207 123.611C464.071 124.3 463.8 124.956 463.41 125.541L308.465 358.089C307.975 358.823 307.312 359.424 306.534 359.839C305.756 360.254 304.887 360.47 304.005 360.468Z" fill="#EEF8FD"/>
</g>
<g opacity="0.33">
<path d="M298.316 505.248C297.344 505.253 296.391 504.991 295.557 504.493C294.724 503.994 294.043 503.277 293.587 502.42C293.131 501.562 292.918 500.596 292.971 499.626C293.025 498.656 293.342 497.719 293.889 496.916L431.618 292.317C432.011 291.734 432.515 291.235 433.1 290.847C433.686 290.459 434.343 290.191 435.033 290.057C435.722 289.923 436.432 289.926 437.12 290.066C437.809 290.206 438.463 290.481 439.045 290.874C439.628 291.267 440.127 291.771 440.515 292.357C440.903 292.943 441.171 293.6 441.305 294.29C441.439 294.98 441.436 295.689 441.296 296.378C441.156 297.067 440.881 297.721 440.488 298.304L302.759 502.887C302.27 503.616 301.609 504.213 300.833 504.625C300.058 505.037 299.193 505.251 298.316 505.248Z" fill="#EEF8FD"/>
</g>
<g opacity="0.33">
<path d="M395.218 504.067C394.248 504.069 393.295 503.806 392.463 503.308C391.631 502.809 390.95 502.093 390.493 501.237C390.036 500.381 389.821 499.416 389.871 498.447C389.921 497.478 390.233 496.54 390.775 495.735L504.565 325.4C504.956 324.816 505.458 324.315 506.042 323.926C506.626 323.536 507.282 323.265 507.971 323.129C508.66 322.993 509.369 322.993 510.057 323.131C510.746 323.269 511.401 323.541 511.984 323.932C512.568 324.323 513.069 324.825 513.458 325.41C513.848 325.994 514.118 326.65 514.255 327.339C514.391 328.028 514.39 328.737 514.252 329.426C514.115 330.115 513.843 330.77 513.452 331.354L399.678 501.689C399.188 502.423 398.525 503.024 397.747 503.439C396.968 503.854 396.1 504.07 395.218 504.067Z" fill="#EEF8FD"/>
</g>
<path d="M527.587 562.705C527.587 562.705 522.766 601.151 518.159 608.073C514.306 613.846 509.879 617.684 513.732 623.081C516.06 626.361 537.424 632.348 544.114 634.087C544.781 634.277 545.497 634.201 546.109 633.873C546.721 633.546 547.182 632.993 547.393 632.331C547.845 631.255 547.949 630.064 547.69 628.926C547.431 627.788 546.823 626.759 545.95 625.984C541.983 622.523 533.227 612.108 533.227 612.108L551.87 558.998L527.587 562.705Z" fill="#F49B91"/>
<path d="M533.209 612.108C531.39 613.996 529.1 615.365 526.575 616.075C524.051 616.784 521.383 616.807 518.846 616.143C517.131 615.691 515.621 614.666 514.567 613.239C512.353 616.52 511.173 619.472 513.78 623.081C516.108 626.361 537.472 632.348 544.162 634.086C544.83 634.277 545.545 634.201 546.157 633.873C546.769 633.546 547.23 632.993 547.441 632.331C547.893 631.255 547.997 630.064 547.738 628.926C547.48 627.788 546.871 626.759 545.999 625.984C541.916 622.523 533.209 612.108 533.209 612.108Z" fill="#666DB2"/>
<path d="M545.982 575.597L551.803 558.998L527.586 562.705C527.586 562.705 527.028 567.117 526.126 573.202C532.496 575.418 539.268 576.235 545.982 575.597Z" fill="#DE706B"/>
<path d="M576.726 565.198C576.726 565.198 583.596 603.333 581.268 611.304C579.317 617.963 576.234 622.949 581.514 626.952C584.793 629.363 606.912 628.707 613.815 628.379C614.494 628.341 615.133 628.048 615.605 627.558C616.076 627.068 616.345 626.418 616.356 625.738C616.462 624.578 616.202 623.413 615.615 622.408C615.027 621.402 614.14 620.605 613.077 620.128C608.273 617.996 596.795 610.681 596.795 610.681L598.747 554.422L576.726 565.198Z" fill="#F49B91"/>
<path d="M596.795 610.681C595.629 613.039 593.854 615.042 591.655 616.484C589.455 617.926 586.911 618.754 584.284 618.882C582.524 618.95 580.791 618.424 579.365 617.389C578.234 621.194 577.988 624.36 581.546 627.05C584.825 629.461 606.944 628.805 613.847 628.477C614.526 628.44 615.165 628.147 615.637 627.657C616.108 627.167 616.377 626.516 616.388 625.836C616.494 624.676 616.234 623.512 615.646 622.506C615.059 621.5 614.171 620.704 613.109 620.227C608.272 617.996 596.795 610.681 596.795 610.681Z" fill="#666DB2"/>
<path d="M598.025 574.891L598.747 554.422L576.726 565.198C576.726 565.198 577.513 569.561 578.464 575.662C584.986 576.399 591.582 576.139 598.025 574.891Z" fill="#DE706B"/>
<path d="M616.175 364.076L550.245 368.373C540.325 380.445 536.226 396.388 535.308 411.986C534.39 427.585 536.308 443.15 537.063 458.781C538.799 495.051 534.097 531.341 523.175 565.969C551.688 570.151 581.169 569.118 609.747 565.296C617.323 534.657 620.831 502.887 624.078 471.509C627.882 434.867 627.669 395.716 616.175 364.076Z" fill="#666DB2"/>
<path d="M551.934 378.231C538.817 402.654 547.786 431.308 550.098 457.158C552.085 480.246 551.127 503.495 547.245 526.341C546.146 532.902 544.769 539.463 543.08 545.876C541.44 552.06 539.44 558.079 537.686 564.214C537.682 564.255 537.691 564.297 537.712 564.333C537.734 564.368 537.766 564.397 537.804 564.413C537.842 564.429 537.885 564.433 537.926 564.424C537.966 564.415 538.003 564.393 538.03 564.361C540.448 559.55 542.403 554.519 543.867 549.337C545.561 543.729 546.93 538.028 547.966 532.263C550.192 520.475 551.627 508.551 552.262 496.572C552.934 485.363 552.934 474.124 552.262 462.915C551.442 450.236 548.983 437.754 547.655 425.19C545.9 409.542 546.015 393.304 552.787 378.756C553.033 378.198 552.262 377.722 551.967 378.28L551.934 378.231Z" fill="#747DBB"/>
<path d="M552.476 385.366C557.034 384.333 561.593 382.627 566.233 383.184C571.906 383.857 576.677 387.744 582.186 389.286C589.548 391.353 597.32 389.007 604.698 386.99C610.306 385.448 616.356 384.136 621.98 385.021C620.556 377.908 618.616 370.908 616.176 364.076L550.246 368.373C546.253 373.299 543.08 378.838 540.851 384.775C544.278 386.498 548.623 386.186 552.476 385.366Z" fill="#5964AA"/>
<path d="M625.555 306.833L626.948 339.178L619.062 339.473C619.062 339.473 607.961 315.985 611.634 309.146C614.093 304.586 625.555 306.833 625.555 306.833Z" fill="#F49089"/>
<path d="M625.554 306.833C625.554 306.833 614.077 304.586 611.634 309.146C610.535 311.196 610.765 314.722 611.634 318.659C616.024 316.101 620.849 314.378 625.866 313.574L625.554 306.833Z" fill="#DE706B"/>
<path d="M618.88 215.113C617.241 209.93 611.781 206.698 606.37 206.026C603.743 205.682 601.085 205.649 598.451 205.928C595.686 206.425 592.893 206.749 590.088 206.895C587.121 206.813 584.351 206.305 581.416 207.125C579.727 207.558 578.148 208.34 576.781 209.423C575.414 210.505 574.288 211.862 573.479 213.407C571.38 217.737 572.316 223.347 569.315 227.103C567.577 229.284 564.854 230.383 562.575 232.023C560.656 233.339 559.066 235.081 557.929 237.112C556.791 239.143 556.137 241.409 556.018 243.734C555.962 246.049 556.561 248.333 557.747 250.321C558.934 252.309 560.66 253.921 562.724 254.97C567.643 257.217 573.364 255.593 578.693 256.315C583.743 257.004 588.531 259.808 593.581 259.693C597.532 259.611 601.304 257.758 605.271 257.84C607.551 257.84 610.093 258.513 611.913 257.135C612.641 256.453 613.168 255.586 613.44 254.626C613.712 253.667 613.716 252.651 613.453 251.689C613.076 249.721 612.158 247.917 611.732 245.965C610.584 240.683 613.225 235.386 615.684 230.563C618.144 225.741 620.52 220.263 618.88 215.113Z" fill="#5683C2"/>
<path d="M535.375 303.766C535.375 303.766 538.064 310.786 548.771 313.607L552.672 305.406L535.375 303.766Z" fill="#E98E31"/>
<path d="M570.643 255.872C563.38 253.543 555.149 256.216 549.525 261.366C543.901 266.517 540.621 273.783 538.768 281.164C536.915 288.545 536.359 296.204 535.375 303.766C541.458 304.815 547.918 304.651 553.804 305.324C558.543 328.123 553.885 352.726 539.555 371.08C541.604 375.098 547.196 376.886 551.672 376.378C556.148 375.869 560.576 374.278 565.052 374.819C572.086 375.689 578.087 381.741 585.154 381.134C589.188 380.773 592.713 378.264 596.632 377.395C600.068 376.853 603.576 376.987 606.961 377.788C610.332 378.593 613.794 378.946 617.258 378.838C618.994 378.756 620.688 378.281 622.213 377.448C623.738 376.616 625.054 375.448 626.062 374.032C625.357 360.968 622.629 348.093 617.979 335.865C616.339 331.338 614.388 326.909 613.06 322.251C611.668 317.608 611.471 312.688 612.487 307.948C617.898 307.325 623.095 307.063 628.49 306.439C627.775 296.365 624.703 286.6 619.521 277.933C616.641 272.69 612.664 268.13 607.862 264.565C602.582 260.874 596.237 259.037 589.924 257.709C583.612 256.38 577.021 257.938 570.643 255.872Z" fill="#FAAD58"/>
<path d="M602.845 248.31C605.442 247.308 607.586 245.396 608.879 242.931C610.682 239.65 609.321 236.189 610.141 232.712C610.731 230.219 612.371 228.005 612.617 225.462C612.688 223.895 612.315 222.34 611.541 220.976C610.766 219.611 609.621 218.494 608.239 217.753C605.29 216.386 601.955 216.09 598.811 216.917C599.19 217.569 599.421 218.297 599.486 219.048C599.551 219.799 599.45 220.556 599.188 221.263C598.545 222.187 597.844 223.069 597.09 223.904C596.068 225.483 595.341 227.233 594.942 229.071C593.302 235.041 591.777 241.356 590.105 247.359C594.417 247.818 598.565 249.869 602.845 248.31Z" fill="#3D6EA2"/>
<path d="M606.206 224.019C607.932 227.074 608.708 230.575 608.436 234.073C608.131 237.193 607.253 240.229 605.845 243.029C604.617 245.755 602.652 248.084 600.172 249.754C597.713 251.279 593.712 251.558 591.646 249.541C591.138 252.427 590.564 255.593 590.006 258.48C591.22 258.742 592.679 259.365 593.876 259.611C595.777 269.782 595.089 280.268 591.875 290.103C585.94 278.507 578.84 265.5 569.986 255.954C574.61 255.954 580.529 255.199 583.481 251.033C586.432 246.867 587.711 239.732 583.89 236.37C583.325 235.998 582.841 235.515 582.466 234.952C582.091 234.388 581.834 233.755 581.71 233.089C581.711 232.549 581.866 232.02 582.156 231.564C582.447 231.108 582.86 230.744 583.349 230.514C583.898 230.312 584.481 230.223 585.065 230.254C585.649 230.285 586.22 230.435 586.743 230.695C590.01 230.111 592.982 228.435 595.171 225.94C597.361 223.446 598.638 220.282 598.795 216.966C603.255 219.951 604.156 220.886 606.206 224.019Z" fill="#F49B91"/>
<path d="M587.514 241.848C587.514 241.848 585.678 254.592 590.056 258.414C590.564 255.527 591.138 252.362 591.695 249.475C589.582 247.399 588.127 244.746 587.514 241.848Z" fill="#DE706B"/>
<path d="M606.55 278.703C608.27 283.201 609.421 287.895 609.977 292.678C610.19 294.974 610.354 297.287 610.42 299.616C610.485 301.945 610.272 304.438 610.42 306.833C610.42 308.325 612.847 308.818 613.142 307.21C613.855 302.286 613.588 297.269 612.355 292.448C611.309 287.588 609.702 282.865 607.567 278.375C607.5 278.27 607.398 278.193 607.279 278.156C607.16 278.12 607.032 278.127 606.917 278.176C606.803 278.226 606.71 278.314 606.655 278.425C606.6 278.537 606.586 278.665 606.616 278.785L606.55 278.703Z" fill="#E98E31"/>
<path d="M568.019 289.414C568.077 292.991 568.5 296.552 569.281 300.042C569.962 303.565 571.232 306.947 573.036 310.048C573.203 310.291 573.456 310.461 573.744 310.525C574.032 310.589 574.333 310.541 574.587 310.391C574.841 310.241 575.029 310 575.112 309.717C575.195 309.435 575.168 309.13 575.036 308.867C573.59 305.827 572.4 302.673 571.478 299.436C570.598 296.141 569.93 292.794 569.478 289.414C569.363 288.512 568.002 288.446 568.019 289.414Z" fill="#E98E31"/>
<path d="M545.147 305.816C550.066 306.997 555.313 306.882 560.379 307.456C562.967 307.645 565.537 308.023 568.069 308.588C569.35 308.885 570.593 309.325 571.775 309.9C572.102 310.064 572.922 310.343 572.824 310.786C572.726 311.229 571.725 311.425 571.529 311.573C570.627 312.229 570.774 314.099 572.168 313.951C574.562 313.705 576.89 310.999 574.808 308.867C573.733 307.967 572.465 307.327 571.102 306.997C569.432 306.438 567.714 306.032 565.97 305.783C559.11 304.835 552.172 304.582 545.262 305.029C544.786 305.029 544.639 305.783 545.147 305.898V305.816Z" fill="#E98E31"/>
<path d="M570.38 257.069C578.004 263.827 582.431 271.536 586.022 281C586.818 283.291 587.857 285.49 589.121 287.56C590.58 289.84 592.4 291.858 594.04 294.007C597.136 298.189 599.878 302.622 602.238 307.259C603.55 309.785 604.812 312.328 606.091 314.886C607.37 317.445 608.436 320.479 609.78 323.186C609.961 323.563 610.518 323.301 610.436 322.907C609.765 320.344 608.938 317.824 607.96 315.362C607.14 312.955 606.188 310.595 605.107 308.293C602.795 303.514 600.085 298.939 597.008 294.613C595.45 292.432 593.728 290.382 592.089 288.233C590.475 286.013 589.158 283.593 588.17 281.032C586.421 276.453 584.224 272.058 581.612 267.911C578.587 263.281 574.839 259.166 570.511 255.724C569.97 255.298 568.872 255.199 569.445 255.724L570.38 257.069Z" fill="#E98E31"/>
<path d="M593.876 260.054C594.376 264.836 594.376 269.657 593.876 274.439C593.187 279.097 591.876 283.69 590.859 288.282C590.613 289.398 592.318 289.922 592.499 288.758C593.515 284.083 594.679 279.392 595.253 274.636C595.893 269.485 594.86 265.057 594.286 259.874C594.286 259.365 593.712 258.906 593.728 259.431L593.876 260.054Z" fill="#E98E31"/>
<path d="M570.265 308.047C570.675 309.687 570.839 311.327 571.249 312.967C572.147 312.889 573.007 312.572 573.741 312.049C574.055 311.792 574.274 311.439 574.366 311.044C574.458 310.65 574.417 310.236 574.249 309.867C574.037 309.573 573.765 309.325 573.452 309.142C573.139 308.958 572.79 308.842 572.43 308.801C571.657 308.732 570.913 308.473 570.265 308.047Z" fill="#E98E31"/>
<path d="M594.548 228.054C594.548 228.3 598.582 228.054 600.254 229.054C600.574 229.303 600.943 229.482 601.336 229.579C602.287 229.727 602.533 228.579 601.746 228.152C601.227 227.878 600.677 227.669 600.106 227.529C598.188 227.086 594.827 226.939 594.548 228.054Z" fill="#675161"/>
<path d="M608.387 229.087C608.387 229.333 608.272 228.382 606.517 229.284C606.159 229.515 605.757 229.671 605.337 229.743C605.143 229.78 604.943 229.739 604.78 229.628C604.617 229.517 604.505 229.346 604.468 229.153C604.431 228.959 604.472 228.759 604.583 228.596C604.694 228.433 604.865 228.32 605.058 228.283C605.572 228.046 606.132 227.928 606.698 227.939C607.829 227.972 608.337 228.595 608.387 229.087Z" fill="#675161"/>
<path d="M600.336 232.532C600.205 233.499 599.5 234.172 598.779 234.172C598.392 234.043 598.067 233.776 597.867 233.421C597.667 233.066 597.606 232.65 597.696 232.253C597.844 231.285 598.533 230.613 599.336 230.695C599.69 230.836 599.984 231.098 600.167 231.433C600.349 231.768 600.409 232.157 600.336 232.532Z" fill="#675161"/>
<path d="M608.174 232.876C608.026 233.827 607.337 234.516 606.534 234.434C606.147 234.303 605.823 234.031 605.626 233.673C605.429 233.315 605.373 232.896 605.468 232.499C605.599 231.531 606.304 230.859 607.026 230.859C607.234 230.916 607.428 231.013 607.598 231.145C607.769 231.277 607.911 231.442 608.018 231.629C608.124 231.817 608.193 232.023 608.22 232.237C608.246 232.451 608.231 232.668 608.174 232.876Z" fill="#675161"/>
<path d="M604.616 237.813C604.873 238.47 604.946 239.184 604.83 239.88C604.741 240.201 604.565 240.492 604.322 240.721C604.079 240.949 603.778 241.106 603.452 241.175C603.121 241.234 602.781 241.203 602.466 241.085C602.152 240.966 601.875 240.765 601.665 240.503C601.978 240.573 602.305 240.542 602.599 240.415C602.893 240.289 603.14 240.073 603.305 239.798C603.624 239.26 603.746 238.628 603.649 238.01C603.649 237.387 603.42 236.78 603.321 236.173C603.157 235.172 602.928 233.171 603.649 232.4C603.993 234.205 604.108 236.025 604.616 237.813Z" fill="#DE706B"/>
<g style="mix-blend-mode:overlay" opacity="0.21">
<path d="M602.73 263.056C609.249 267.613 614.697 273.537 618.695 280.414C622.694 287.292 625.146 294.958 625.882 302.88C623.34 303.438 620.389 303.897 617.847 304.438C616.473 289.568 611.264 275.309 602.73 263.056Z" fill="#FFF9F4"/>
</g>
<path d="M603.961 244.784C601.78 245.375 599.461 245.19 597.402 244.259C597.073 245.255 597.102 246.334 597.484 247.31C597.741 247.787 598.133 248.178 598.612 248.432C599.091 248.686 599.634 248.792 600.173 248.737C601.226 248.596 602.19 248.071 602.878 247.261C603.432 246.534 603.803 245.684 603.961 244.784Z" fill="#EE8780"/>
<path opacity="0.58" d="M606.863 315.788C589.16 314.645 571.712 310.972 555.05 304.881C556.398 315.796 556.127 326.85 554.247 337.685C564.094 338.19 573.93 336.486 583.034 332.698C592.138 328.909 600.279 323.132 606.863 315.788Z" fill="#E98E31"/>
<path d="M597.156 246.769C597.203 246.979 597.274 247.183 597.369 247.376C597.626 247.853 598.019 248.243 598.497 248.497C598.976 248.751 599.518 248.857 600.057 248.803C600.951 248.695 601.782 248.291 602.419 247.654C601.762 247.057 600.959 246.644 600.091 246.457C599.104 246.271 598.083 246.38 597.156 246.769Z" fill="#DE706B"/>
<path d="M603.96 244.784C601.779 245.375 599.46 245.19 597.401 244.259C597.132 245.067 597.048 245.924 597.155 246.769C598.082 246.38 599.102 246.271 600.09 246.457C600.958 246.644 601.761 247.057 602.418 247.654C602.533 247.54 602.664 247.441 602.763 247.326C603.367 246.592 603.779 245.718 603.96 244.784Z" fill="#675161"/>
<path d="M684.057 291.054H626.342C625.56 291.043 624.801 291.311 624.2 291.81C623.598 292.309 623.195 293.007 623.062 293.777L615.586 334.274H589.893C589.484 334.274 589.092 334.436 588.803 334.725C588.514 335.014 588.351 335.406 588.351 335.815V338.85C588.351 339.259 588.514 339.651 588.803 339.94C589.092 340.229 589.484 340.392 589.893 340.392H647.673L673.153 340.638C673.902 340.659 674.636 340.424 675.233 339.97C675.83 339.517 676.253 338.872 676.433 338.144L687.336 295.188C687.47 294.692 687.485 294.172 687.382 293.669C687.278 293.167 687.058 292.695 686.739 292.293C686.42 291.891 686.011 291.57 685.545 291.355C685.079 291.139 684.57 291.036 684.057 291.054Z" fill="#A5DDEC"/>
<path d="M570.741 307.095C572.659 315.821 575.135 327.221 578.496 335.471C600.828 336.57 622.34 337.669 644.213 339.506C641.716 342.252 638.65 344.419 635.229 345.855C631.807 347.292 628.114 347.963 624.406 347.822C623.225 348.429 621.225 349.347 620.012 349.872C607.902 355.307 594.639 357.667 581.398 356.744C576.428 356.611 571.555 355.343 567.15 353.038C561.772 349.921 558.148 344.508 555.328 338.965C550.032 328.566 545.195 316.461 544.654 304.783C553.082 304.373 562.723 304.701 570.741 307.095Z" fill="#F49B91"/>
<path d="M629.244 338.325L634.95 338.8C634.95 338.8 630.505 342.081 628.882 341.868C627.259 341.654 630.145 340.424 630.325 339.768C630.505 339.112 630.506 338.44 629.244 338.325Z" fill="#E2756D"/>
<path d="M655.445 304.405C652.702 304.508 650.074 305.536 647.99 307.323C645.906 309.11 644.488 311.55 643.968 314.247C643.722 315.452 643.75 316.697 644.05 317.89C644.35 319.083 644.915 320.194 645.702 321.139C646.489 322.084 647.479 322.84 648.598 323.35C649.717 323.861 650.936 324.113 652.166 324.088C654.909 323.986 657.537 322.957 659.621 321.17C661.705 319.383 663.123 316.943 663.643 314.247C663.89 313.041 663.862 311.796 663.561 310.603C663.261 309.41 662.697 308.3 661.909 307.355C661.122 306.409 660.132 305.654 659.013 305.143C657.894 304.633 656.675 304.38 655.445 304.405Z" fill="#F5FBFD"/>
<path d="M645.164 315.657C645.684 312.961 647.102 310.521 649.186 308.734C651.27 306.946 653.898 305.918 656.641 305.816C658.73 305.779 660.759 306.522 662.331 307.899C661.555 306.791 660.517 305.892 659.31 305.283C658.103 304.673 656.763 304.372 655.411 304.405C652.668 304.508 650.041 305.536 647.956 307.323C645.872 309.11 644.454 311.55 643.934 314.247C643.65 315.654 643.732 317.111 644.171 318.477C644.61 319.844 645.392 321.076 646.443 322.054C645.212 320.165 644.754 317.875 645.164 315.657Z" fill="#7ACFE6"/>
<path d="M566.855 336.209C570.525 335.192 574.37 334.963 578.135 335.536C578.196 335.554 578.26 335.557 578.323 335.548C578.386 335.538 578.445 335.515 578.498 335.48C578.551 335.445 578.596 335.399 578.63 335.345C578.663 335.291 578.685 335.231 578.693 335.168C578.702 335.105 578.696 335.041 578.678 334.98C578.659 334.92 578.628 334.864 578.586 334.816C578.544 334.769 578.492 334.731 578.434 334.705C578.376 334.679 578.313 334.666 578.25 334.667C574.397 334.17 570.482 334.512 566.773 335.668C566.737 335.677 566.704 335.694 566.675 335.717C566.646 335.739 566.621 335.767 566.603 335.799C566.585 335.831 566.573 335.866 566.568 335.903C566.564 335.939 566.566 335.977 566.576 336.012C566.586 336.048 566.602 336.081 566.625 336.11C566.647 336.139 566.675 336.164 566.707 336.182C566.739 336.2 566.774 336.212 566.811 336.217C566.848 336.221 566.885 336.219 566.92 336.209H566.855Z" fill="#DE706B"/>
<path d="M572.987 317.019C572.151 313.558 571.347 310.163 570.741 307.095C562.772 304.701 553.082 304.373 544.654 304.783C544.763 307.083 545.026 309.374 545.441 311.639C554.902 311.443 564.295 313.277 572.987 317.019Z" fill="#DE706B"/>
<path d="M629.244 338.325L634.95 338.8C634.95 338.8 630.505 342.081 628.882 341.868C627.259 341.654 630.145 340.424 630.325 339.768C630.505 339.112 630.506 338.44 629.244 338.325Z" fill="#E2756D"/>
<path opacity="0.61" d="M580.021 210.028C578.457 210.632 577.125 211.718 576.217 213.128C574.97 215.111 574.201 217.357 573.971 219.689C573.939 219.95 573.991 220.214 574.119 220.444C574.246 220.674 574.443 220.858 574.682 220.969C574.92 221.08 575.188 221.112 575.446 221.062C575.704 221.012 575.939 220.882 576.119 220.689C577.414 219.295 578.463 216.671 579.168 217.13L579.726 218.426C579.692 218.627 579.707 218.833 579.772 219.026C579.836 219.22 579.946 219.395 580.093 219.535C580.241 219.676 580.42 219.779 580.616 219.834C580.812 219.89 581.019 219.896 581.218 219.853C582.295 219.611 583.424 219.781 584.382 220.328C584.988 220.779 585.63 221.18 586.301 221.526C588.072 222.231 589.924 220.968 591.515 219.886C593.105 218.803 595.384 218.016 596.745 219.328C596.827 218.803 596.702 218.267 596.396 217.832C596.09 217.398 595.627 217.099 595.106 216.999C594.05 216.838 592.972 216.9 591.941 217.179C590.897 217.443 589.792 217.29 588.859 216.753C587.645 215.851 587.612 214.079 587.039 212.685C586.768 212.037 586.368 211.451 585.863 210.962C585.358 210.474 584.758 210.094 584.102 209.845C583.445 209.597 582.744 209.485 582.043 209.516C581.341 209.547 580.653 209.722 580.021 210.028Z" fill="#6297D0"/>
<path opacity="0.61" d="M558.886 245.309C558.902 245.648 559.009 245.977 559.198 246.26C559.772 246.982 560.968 246.588 561.624 245.932C562.28 245.276 562.788 244.39 563.674 244.111C564.936 243.718 566.15 244.8 566.953 245.85C567.756 246.9 568.593 248.163 569.921 248.294C571.987 248.524 573.2 245.899 575.266 245.358C577.332 244.817 578.873 246.162 580.677 245.85C581.118 245.756 581.535 245.571 581.902 245.308C582.269 245.044 582.577 244.708 582.808 244.32C583.039 243.932 583.187 243.501 583.244 243.053C583.3 242.605 583.264 242.15 583.136 241.717C582.972 242.881 581.333 243.177 580.267 242.685C579.201 242.192 578.381 241.208 577.283 240.782C575.788 240.419 574.222 240.476 572.757 240.946C572.027 241.176 571.251 241.218 570.5 241.069C569.75 240.92 569.048 240.585 568.462 240.093C567.789 238.99 567.369 237.752 567.232 236.468C566.051 232.4 562.624 234.828 561.083 237.042C559.363 239.435 558.581 242.377 558.886 245.309Z" fill="#6297D0"/>
<g style="mix-blend-mode:overlay" opacity="0.21">
<path d="M578.562 303.356C578.425 304.551 578.606 305.762 579.086 306.866C579.686 307.614 580.509 308.15 581.436 308.396C582.363 308.641 583.344 308.582 584.235 308.227C586.055 307.686 587.678 306.587 589.498 305.996C594.597 304.356 600.697 307.637 605.206 304.717C606.166 304.049 606.983 303.196 607.608 302.207C608.233 301.218 608.654 300.114 608.846 298.96C609.231 296.649 609.198 294.288 608.747 291.989C608.723 291.385 608.576 290.792 608.313 290.248C608.051 289.703 607.68 289.218 607.222 288.823C606.52 288.513 605.735 288.439 604.987 288.614C604.238 288.788 603.567 289.202 603.074 289.791C602.123 290.985 601.105 292.124 600.024 293.203C597.483 295.204 593.859 294.613 590.711 293.924L580.759 291.727C578.217 291.169 575.463 290.989 576.496 294.269C577.655 297.171 578.352 300.237 578.562 303.356Z" fill="#FFF9F4"/>
</g>
<g style="mix-blend-mode:overlay" opacity="0.21">
<path d="M552.885 301.781C548.477 301.948 544.066 301.529 539.768 300.535C539.539 291.513 540.457 282.279 544.211 274.062C547.966 265.844 554.902 258.791 563.625 256.479C554.898 269.875 551.101 285.891 552.885 301.781Z" fill="#FFF9F4"/>
</g>
<g style="mix-blend-mode:overlay" opacity="0.21">
<path d="M532.701 559.342C538.719 534.739 544.769 509.743 544.671 484.369C544.572 452.172 534.652 419.318 543.277 388.302C542.473 415.382 557.82 439.05 562.952 465.638C569.478 499.459 557.033 534.985 532.701 559.342Z" fill="#E0E2F2"/>
</g>
<path d="M624.619 293.974L618.29 337.013L593.089 335.307H616.568L624.619 293.974Z" fill="#F5FBFD"/>
<path opacity="0.54" d="M527.553 617.996L543.539 626.197C543.636 626.255 543.75 626.275 543.86 626.254C543.971 626.233 544.07 626.173 544.138 626.084C544.207 625.995 544.241 625.884 544.233 625.772C544.225 625.66 544.177 625.554 544.097 625.475L533.21 613.682C533.21 613.682 530.848 617.881 527.553 617.996Z" fill="#8089C3"/>
<path opacity="0.54" d="M592.777 617.701L610.354 621.49C610.46 621.513 610.57 621.498 610.666 621.448C610.761 621.398 610.836 621.316 610.877 621.216C610.919 621.116 610.923 621.005 610.89 620.902C610.858 620.799 610.79 620.711 610.699 620.653L597.155 612.042C597.155 612.042 595.925 616.717 592.777 617.701Z" fill="#8089C3"/>
<path d="M159.899 450.449C152.258 499.065 159.39 549.944 144.781 596.936C147.847 599.462 147.339 604.514 150.127 607.368C152.356 609.664 155.652 610.468 158.767 611.173L159.128 610.73C157.8 610.254 158.538 609.877 158.849 608.516C161.407 597.313 165.146 586.438 168.162 575.351C172.032 561.179 174.721 546.729 177.541 532.312C183.4 502.558 189.866 472.931 196.938 443.429C190.544 443.326 184.151 443.727 177.82 444.626C171.573 445.709 164.965 446.611 159.899 450.449Z" fill="#F49B91"/>
<path d="M151.783 564.493C150.347 575.481 148.005 586.333 144.781 596.936C147.847 599.462 147.339 604.514 150.127 607.368C152.356 609.664 155.652 610.468 158.767 611.173L159.128 610.73C157.8 610.254 158.538 609.877 158.849 608.516C161.407 597.313 165.146 586.438 168.162 575.351C169.081 572.07 169.917 568.675 170.704 565.313C164.432 564.498 158.102 564.224 151.783 564.493Z" fill="#E4E7E9"/>
<path d="M140.239 595.148C140.239 595.148 151.896 595.558 152.716 597.411C153.536 599.265 150.273 607.843 152.306 608.663C154.339 609.483 156.52 608.909 159.127 610.73C161.734 612.551 158.653 625.492 158.653 625.492C158.653 625.492 119.792 625.689 109.364 610.549C109.364 610.549 107.316 606.039 113.858 605.022C120.4 604.005 131.45 607.892 135.172 604.202C137.537 601.616 139.271 598.517 140.239 595.148Z" fill="#6482AF"/>
<path d="M177.82 444.626C171.573 445.709 164.965 446.611 159.899 450.449C159.396 453.73 158.953 457.01 158.571 460.29C169.915 458.102 181.591 458.297 192.855 460.864C194.2 455.075 195.544 449.285 196.938 443.495C190.546 443.37 184.153 443.749 177.82 444.626Z" fill="#DE706B"/>
<path d="M225.549 463.03C241.601 509.546 271.786 551.125 280.919 599.478C284.821 600.265 286.756 604.973 290.544 606.187C293.577 607.171 296.873 606.334 299.955 605.498L300.054 604.924C298.676 605.137 299.152 604.464 298.791 603.103C295.791 592.015 293.987 580.649 291.446 569.446C288.166 555.127 283.805 541.087 279.542 527.03C270.731 498.021 262.533 468.83 254.947 439.46C249.26 442.367 243.811 445.718 238.649 449.481C233.632 453.434 228.238 457.272 225.549 463.03Z" fill="#F49B91"/>
<path d="M271.885 567.543C275.771 577.899 278.792 588.558 280.919 599.413C284.821 600.2 286.756 604.907 290.544 606.121C293.577 607.105 296.874 606.269 299.956 605.432L300.055 604.858C298.677 605.071 299.153 604.399 298.792 603.037C295.792 591.95 293.988 580.583 291.447 569.38C290.692 566.018 289.807 562.672 288.987 559.326C283.061 561.569 277.339 564.318 271.885 567.543Z" fill="#E4E7E9"/>
<path d="M276.083 600.036C276.083 600.036 286.577 594.918 288.167 596.165C289.758 597.411 290.889 606.531 293.086 606.301C295.283 606.072 296.907 604.546 300.055 604.924C303.203 605.301 306.613 618.144 306.613 618.144C306.613 618.144 272.394 636.563 256.08 628.1C256.08 628.1 252.161 625.082 257.457 621.096C262.753 617.11 274.345 615.372 275.87 610.385C276.728 606.997 276.801 603.457 276.083 600.036Z" fill="#6482AF"/>
<path d="M238.649 449.482C233.632 453.385 224.696 448.514 222.023 454.271C223.106 457.387 227.762 469.23 228.959 472.313C237.951 465.053 248.353 459.741 259.506 456.715C257.964 450.974 256.445 445.228 254.947 439.476C249.261 442.378 243.811 445.724 238.649 449.482Z" fill="#DE706B"/>
<path d="M175.048 356.941C175.048 356.941 171.769 364.814 171.769 370.867C171.769 376.919 169.342 383.283 168.735 390.254C168.129 397.225 156.93 454.468 156.93 454.468H204.168L211.431 421.45L221.122 455.075H271.393L259.915 355.416L175.048 356.941Z" fill="#CDD1E9"/>
<g style="mix-blend-mode:multiply" opacity="0.51">
<path d="M261.785 372.277L259.834 355.416L175.049 356.941C173.344 361.059 172.239 365.401 171.77 369.833C201.493 362.961 232.479 363.802 261.785 372.277Z" fill="#CDD1E9"/>
</g>
<path d="M240.01 364.486C243.667 371.506 247.175 380.412 255.21 383.447C255.997 383.742 256.505 382.479 255.783 382.085C254.112 381.286 252.538 380.295 251.094 379.133C249.615 377.857 248.319 376.383 247.241 374.754C246.142 373.114 245.224 371.359 244.224 369.636C243.224 367.914 242.011 365.847 240.945 363.945C240.873 363.825 240.757 363.739 240.621 363.705C240.486 363.671 240.343 363.693 240.223 363.764C240.104 363.836 240.018 363.953 239.984 364.088C239.95 364.223 239.971 364.366 240.043 364.486H240.01Z" fill="#ACB7DD"/>
<path d="M245.601 365.765C247.287 368.869 249.246 371.817 251.455 374.573C252.537 375.921 253.686 377.213 254.898 378.444C256.076 379.81 257.427 381.018 258.915 382.036C259.702 382.496 260.374 381.479 259.833 380.839C259.243 380.208 258.608 379.622 257.931 379.084L256.161 377.444C254.947 376.214 253.767 374.934 252.652 373.622C250.424 370.992 248.447 368.158 246.749 365.159C246.648 365.033 246.505 364.947 246.347 364.918C246.188 364.889 246.024 364.918 245.885 364.999C245.746 365.081 245.641 365.21 245.589 365.362C245.536 365.515 245.541 365.681 245.601 365.831V365.765Z" fill="#ACB7DD"/>
<path d="M183.525 362.288C182.309 367.406 179.585 372.041 175.704 375.59C175.051 376.181 174.361 376.729 173.638 377.23C172.916 377.739 172.097 378.165 171.424 378.739C170.752 379.314 171.637 380.38 172.474 380.101C173.312 379.665 174.085 379.112 174.769 378.461C175.441 377.919 176.081 377.329 176.704 376.722C180.694 372.895 183.456 367.968 184.64 362.567C184.804 361.845 183.705 361.534 183.525 362.255V362.288Z" fill="#ACB7DD"/>
<path d="M189.231 364.634C187.814 369.258 185.364 373.498 182.066 377.034C178.779 380.504 174.839 383.291 170.473 385.235C169.309 385.776 170.145 387.777 171.342 387.318C176.032 385.309 180.199 382.253 183.524 378.384C186.85 374.514 189.245 369.934 190.526 364.995C190.544 364.832 190.504 364.667 190.412 364.532C190.32 364.396 190.182 364.297 190.024 364.254C189.866 364.21 189.698 364.225 189.549 364.294C189.401 364.364 189.282 364.484 189.214 364.634H189.231Z" fill="#ACB7DD"/>
<path d="M210.021 364.502C210.103 381.79 210.972 399.029 211.054 416.3C211.054 417.12 212.366 417.12 212.333 416.3C211.661 399.045 211.743 381.774 211.054 364.502C211.033 364.381 210.969 364.272 210.875 364.192C210.78 364.113 210.661 364.07 210.538 364.07C210.415 364.07 210.295 364.113 210.201 364.192C210.107 364.272 210.043 364.381 210.021 364.502Z" fill="#ACB7DD"/>
<path d="M203.807 364.863L204.102 371.785C204.124 373.939 204.311 376.089 204.66 378.215C204.989 380.011 205.687 381.72 206.709 383.234C207.629 384.703 209.033 385.805 210.678 386.35C210.867 386.394 211.065 386.37 211.238 386.281C211.41 386.193 211.546 386.046 211.621 385.867C211.695 385.688 211.703 385.489 211.645 385.304C211.586 385.119 211.464 384.961 211.3 384.857C209.931 384.152 208.745 383.135 207.841 381.889C206.921 380.342 206.33 378.622 206.104 376.837C205.497 372.9 205.414 368.833 205.119 364.863C205.119 364.027 203.774 364.01 203.807 364.863Z" fill="#ACB7DD"/>
<path d="M206.431 392.14C208.754 391.755 211.097 391.509 213.449 391.402C214.597 391.402 215.745 391.402 216.892 391.402C218.04 391.402 219.286 391.549 220.467 391.402C221.336 391.402 221.664 389.991 220.68 389.762C219.428 389.559 218.159 389.487 216.892 389.548C215.695 389.548 214.515 389.548 213.318 389.68C210.863 389.831 208.421 390.138 206.005 390.598C205.021 390.779 205.448 392.238 206.431 392.107V392.14Z" fill="#ACB7DD"/>
<path d="M204.102 399.045C207.086 398.815 210.087 398.553 213.071 398.274C216.055 397.995 218.99 397.815 221.925 397.372C222.925 397.208 222.696 395.568 221.695 395.617C218.761 395.765 215.826 396.158 212.891 396.454C209.956 396.749 207.021 397.093 204.102 397.454C203.102 397.569 203.053 399.094 204.102 399.094V399.045Z" fill="#ACB7DD"/>
<path d="M165.079 310.195C163.7 309.253 162.527 308.04 161.63 306.63C160.734 305.22 160.133 303.643 159.865 301.994C158.848 296.336 165.653 294.433 165.653 294.433L168.325 295.647C168.325 295.647 169.211 307.145 165.079 310.195Z" fill="#3A6CA0"/>
<path d="M171.31 236.485H156.34C155.787 236.483 155.253 236.289 154.828 235.935C154.403 235.582 154.114 235.092 154.011 234.549L148.043 201.958C147.981 201.617 147.994 201.266 148.082 200.931C148.17 200.596 148.331 200.284 148.553 200.018C148.776 199.752 149.054 199.538 149.368 199.391C149.682 199.245 150.025 199.169 150.371 199.17H165.341C165.894 199.172 166.428 199.366 166.853 199.719C167.278 200.072 167.567 200.562 167.67 201.105L173.638 233.647C173.706 233.991 173.696 234.346 173.611 234.687C173.525 235.027 173.365 235.344 173.143 235.615C172.92 235.886 172.64 236.105 172.324 236.255C172.007 236.406 171.66 236.484 171.31 236.485Z" fill="#EEF7FC"/>
<path d="M156.323 268.78L150.781 273.012L154.061 233.827C154.061 233.827 160.209 227.89 160.439 222.444C161.363 221.969 162.352 221.632 163.374 221.444C163.948 221.559 167.883 222.789 168.588 221.969C169.293 221.149 165.538 218.688 165.177 218.508C163.236 218.502 161.297 218.628 159.373 218.885C160.913 217.527 162.558 216.293 164.292 215.195C165.68 215.03 167.038 214.672 168.325 214.129C168.85 213.604 163.816 212.669 162.931 212.784C161.006 213.509 159.128 214.352 157.307 215.31C158.662 212.632 160.191 210.046 161.882 207.568C162.882 206.633 164.571 204.583 163.702 204.287C163.108 204.156 162.493 204.151 161.897 204.273C161.301 204.394 160.737 204.639 160.242 204.993C159.324 205.599 161.095 202.795 161.587 202.024C161.628 201.96 161.649 201.886 161.649 201.811C161.649 201.735 161.628 201.661 161.587 201.597C161.275 201.138 160.308 200.302 158.078 202.352C155.208 204.993 148.24 211.619 147.518 213.833C146.159 219.191 145.536 224.709 145.666 230.235C140.428 238.308 136.349 247.075 133.549 256.282C129.302 270.83 126.285 296.073 128.302 303.749C130.319 311.425 132.335 311.95 137.992 311.622C143.649 311.294 170.85 298.845 170.85 298.845L166.407 281.836L156.323 268.78Z" fill="#F49B91"/>
<path d="M165.916 281.213L156.324 268.78L150.782 273.077L146.519 288.02L165.916 281.213Z" fill="#DE706B"/>
<path d="M213.792 250.623L212.071 250.295C212.071 250.295 192.395 247.556 189.116 248.278C185.837 248.999 179.278 246.965 154.88 269.321C154.88 269.321 172.916 292.694 165.145 310.113L178.671 298.205L180.508 338.702C180.508 338.702 170.326 347.953 170.883 359.434C170.883 359.434 170.145 361.468 196.806 361.665H261.407V311.294L290.544 308.145C289.997 305.307 288.789 302.638 287.018 300.354C284.428 297.582 285.182 289.25 281.477 286.281C277.771 283.312 277.033 262.203 267.95 257.578C258.866 252.952 242.142 250.492 242.142 250.492L213.792 250.623Z" fill="#5683C2"/>
<path d="M237.813 216.064C238.44 216.188 239.02 216.484 239.489 216.918C239.957 217.353 240.296 217.91 240.466 218.526C240.636 219.143 240.631 219.794 240.453 220.408C240.274 221.022 239.927 221.573 239.453 222.002C240.551 222.52 241.507 223.297 242.24 224.265C242.582 224.733 242.794 225.283 242.854 225.859C242.915 226.435 242.822 227.017 242.584 227.545C242.306 228.087 241.847 228.513 241.568 229.054C241.243 230.127 241.007 231.224 240.863 232.335C240.425 233.376 239.621 234.22 238.602 234.706C237.583 235.193 236.422 235.289 235.337 234.976C234.259 234.625 233.266 234.055 232.419 233.302C231.572 232.548 230.891 231.627 230.418 230.596C228.47 226.597 227.588 222.161 227.86 217.721C227.802 216.632 228.153 215.562 228.844 214.719C229.257 214.38 229.735 214.13 230.248 213.983C230.761 213.836 231.299 213.797 231.828 213.866C233.927 213.965 235.714 215.605 237.813 216.064Z" fill="#675161"/>
<path d="M229.549 215.769C229.549 217.918 229.664 220.083 229.73 222.231C230.408 221.535 231.215 220.978 232.107 220.591C232.557 220.404 233.041 220.316 233.528 220.333C234.015 220.35 234.492 220.472 234.927 220.689C235.552 221.146 236.026 221.779 236.288 222.506C236.551 223.234 236.591 224.023 236.403 224.774C236.164 226.06 235.601 227.265 234.766 228.273C233.93 229.28 232.852 230.058 231.632 230.531C232.763 237.091 234.009 243.652 235.141 250.328H241.699C241.83 250.328 242.076 250.525 242.207 250.525C237.136 254.628 231.573 258.082 225.647 260.809C223.756 261.776 221.717 262.419 219.613 262.711C218.559 262.847 217.488 262.761 216.469 262.459C215.449 262.156 214.504 261.645 213.694 260.956C212.399 259.629 211.615 257.886 211.481 256.036C211.466 254.123 211.664 252.214 212.071 250.344C213.497 250.344 215.022 250.18 216.449 250.246C215.94 247.622 215.563 244.997 215.071 242.357C212.337 241.974 209.86 240.537 208.169 238.354C206.569 235.967 205.578 233.225 205.283 230.367C204.299 224.544 205.447 220.001 208.021 213.965C215.973 214.703 221.548 215.014 229.549 215.769Z" fill="#F49B91"/>
<path d="M221.154 219.197C221.154 219.426 217.449 218.59 215.76 219.328C215.425 219.509 215.057 219.62 214.678 219.656C214.495 219.68 214.31 219.63 214.164 219.518C214.018 219.406 213.923 219.24 213.899 219.057C213.875 218.875 213.925 218.69 214.037 218.544C214.149 218.398 214.315 218.302 214.497 218.278C215.029 218.098 215.579 217.977 216.137 217.917C217.957 217.721 221.072 218.147 221.154 219.197Z" fill="#675161"/>
<path d="M205.66 217.77C205.66 218.016 206.152 217.097 208.841 218.524C209.42 218.884 210.05 219.155 210.71 219.328C212.35 219.689 213.071 218.541 211.792 217.95C210.932 217.533 210.015 217.246 209.07 217.097C207.086 216.802 205.955 217.245 205.66 217.77Z" fill="#675161"/>
<path d="M215.122 222.526C215.122 223.429 215.663 224.167 216.351 224.167C217.04 224.167 217.597 223.445 217.614 222.526C217.63 221.608 217.073 220.886 216.384 220.886C215.695 220.886 215.204 221.608 215.122 222.526Z" fill="#675161"/>
<path d="M207.907 221.723C207.864 222.102 207.967 222.482 208.196 222.787C208.425 223.092 208.761 223.298 209.137 223.363C209.826 223.363 210.383 222.641 210.399 221.723C210.416 220.804 209.858 220.083 209.17 220.083C208.481 220.083 207.924 220.821 207.907 221.723Z" fill="#675161"/>
<path d="M210.497 226.807C210.162 227.366 209.991 228.009 210.005 228.661C210.035 228.974 210.154 229.272 210.349 229.519C210.544 229.767 210.806 229.953 211.103 230.055C211.399 230.157 211.716 230.177 212.022 230.113C212.328 230.05 212.611 229.905 212.841 229.694C212.548 229.708 212.258 229.632 212.009 229.477C211.76 229.322 211.564 229.094 211.448 228.825C211.274 228.292 211.274 227.717 211.448 227.185C211.608 226.627 211.799 226.08 212.022 225.544C212.317 224.659 212.809 222.838 212.235 222.018C211.579 223.543 211.218 225.216 210.497 226.807Z" fill="#DE706B"/>
<path d="M209.349 232.122C211.866 233.245 214.699 233.449 217.35 232.696C217.568 233.943 217.336 235.228 216.695 236.321C216.306 236.847 215.77 237.246 215.153 237.465C214.537 237.685 213.869 237.714 213.235 237.551C211.978 237.2 210.896 236.393 210.202 235.287C209.666 234.316 209.373 233.23 209.349 232.122Z" fill="#EE8780"/>
<path d="M217.055 235.632C216.975 235.88 216.853 236.113 216.695 236.321C216.306 236.847 215.77 237.246 215.153 237.465C214.537 237.685 213.869 237.714 213.235 237.551C212.193 237.239 211.279 236.601 210.628 235.73C211.577 235.1 212.688 234.756 213.827 234.738C214.967 234.721 216.087 235.031 217.055 235.632Z" fill="#DE706B"/>
<path d="M209.349 232.122C211.866 233.245 214.699 233.449 217.35 232.696C217.476 233.684 217.375 234.688 217.055 235.632C216.087 235.031 214.967 234.721 213.827 234.738C212.688 234.756 211.577 235.1 210.628 235.73C210.477 235.591 210.334 235.444 210.202 235.287C209.666 234.316 209.373 233.23 209.349 232.122Z" fill="#675161"/>
<path d="M219.679 197.562C219.679 197.562 231.648 196.595 235.764 202.27C237.174 204.321 238.151 206.639 238.636 209.081C239.121 211.524 239.103 214.039 238.584 216.474L230.205 215.195L219.679 197.562Z" fill="#D8D6EB"/>
<path d="M209.054 209.208C209.054 209.208 197.675 209.208 195.937 210.75C194.199 212.292 212.628 218.377 230.271 215.211L209.054 209.208Z" fill="#6A6EB2"/>
<path d="M209.054 209.208C209.054 209.208 213.76 196.365 221.548 197.481C229.336 198.596 230.205 215.211 230.205 215.211C230.205 215.211 211.021 213.062 209.054 209.208Z" fill="#B5B2D8"/>
<path d="M220.04 250.049C221.36 249.496 222.497 248.58 223.32 247.408C226.612 243.362 229.196 238.786 230.96 233.877C227.502 236.703 223.667 239.032 219.565 240.798C217.765 241.478 215.876 241.892 213.957 242.028C214.354 242.143 214.76 242.226 215.171 242.274C215.663 244.85 216.023 247.408 216.515 249.983C217.661 250.337 218.883 250.36 220.04 250.049Z" fill="#DE706B"/>
<path d="M217.613 266.172C217.055 275.833 215.268 285.346 214.334 294.974C213.874 299.55 213.596 304.143 213.317 308.735C212.945 315.023 212.606 321.305 212.3 327.581C211.989 333.978 211.53 340.408 211.743 346.805C211.907 351.578 212.071 356.351 212.382 361.124C212.382 361.245 212.431 361.362 212.517 361.448C212.603 361.534 212.72 361.583 212.841 361.583C212.963 361.583 213.08 361.534 213.166 361.448C213.252 361.362 213.301 361.245 213.301 361.124C213.448 357.023 213.94 352.923 214.35 348.871C214.989 342.606 215.235 336.34 215.498 330.042C216.006 318.741 216.563 307.44 217.269 296.155C217.892 286.133 219.318 276.227 219.252 266.172C219.252 265.955 219.166 265.746 219.012 265.592C218.859 265.438 218.65 265.352 218.433 265.352C218.215 265.352 218.007 265.438 217.853 265.592C217.699 265.746 217.613 265.955 217.613 266.172Z" fill="#386BA0"/>
<path d="M196.494 341.195C199.109 340.268 201.662 339.172 204.135 337.915C205.43 337.308 206.709 336.718 207.988 336.061C209.329 335.458 210.618 334.745 211.841 333.929C212.71 333.289 212.235 331.649 211.054 332.059C209.679 332.571 208.351 333.202 207.086 333.946C205.824 334.602 204.594 335.307 203.364 336.012C200.938 337.39 198.577 338.965 196.035 340.113C195.412 340.392 195.855 341.408 196.494 341.212V341.195Z" fill="#4380B5"/>
<path d="M218.203 331.452C223.417 328.516 229.058 326.351 234.468 323.809C237.127 322.592 239.697 321.189 242.158 319.61C244.388 318.167 247.257 316.33 248.389 313.837C248.618 313.312 248.208 312.41 247.52 312.705C245.073 314.054 242.747 315.613 240.568 317.363C238.125 319.003 235.534 320.315 232.943 321.66C227.697 324.383 222.368 326.86 217.4 330.091C217.219 330.198 217.089 330.371 217.036 330.575C216.984 330.778 217.014 330.993 217.121 331.174C217.228 331.354 217.401 331.485 217.604 331.537C217.807 331.589 218.023 331.559 218.203 331.452Z" fill="#4380B5"/>
<path d="M252.389 322.677C249.648 324.723 247.125 327.048 244.864 329.615C243.702 330.876 242.464 332.064 241.158 333.175C239.518 334.487 237.748 335.52 236.059 336.717C233.019 338.999 230.217 341.581 227.697 344.426C225.122 347.133 221.777 350.101 220.302 353.611C220.007 354.3 220.794 355.055 221.417 354.464C222.794 353.136 223.876 351.512 225.139 350.052C226.401 348.592 227.729 347.198 229.074 345.804C231.682 342.892 234.595 340.269 237.764 337.98C240.675 336.178 243.371 334.048 245.798 331.633C248.053 328.924 250.544 326.421 253.242 324.153C254.127 323.514 253.242 322.038 252.389 322.677Z" fill="#4380B5"/>
<path d="M248.947 283.345C250.915 288.266 251.997 293.514 253.571 298.599C254.298 301.009 255.191 303.365 256.244 305.652C256.797 306.834 257.427 307.979 258.129 309.08C258.689 310.236 259.572 311.204 260.671 311.868C260.825 311.955 261.001 311.993 261.178 311.98C261.354 311.967 261.523 311.902 261.662 311.794C261.802 311.685 261.907 311.538 261.964 311.371C262.021 311.203 262.027 311.023 261.982 310.851C261.594 309.745 261.011 308.718 260.261 307.817C259.559 306.722 258.929 305.582 258.375 304.405C257.276 302.044 256.307 299.624 255.473 297.156C253.966 292.286 252.04 287.555 249.718 283.017C249.488 282.623 248.767 282.886 248.947 283.345Z" fill="#4380B5"/>
<path d="M228.959 270.929C228.962 271.659 228.749 272.375 228.345 272.984C227.942 273.593 227.367 274.068 226.693 274.35C226.019 274.632 225.277 274.707 224.56 274.567C223.844 274.426 223.185 274.076 222.667 273.561C222.15 273.045 221.797 272.388 221.653 271.671C221.509 270.955 221.581 270.212 221.86 269.537C222.139 268.861 222.612 268.284 223.219 267.878C223.826 267.472 224.54 267.255 225.27 267.255C225.754 267.253 226.233 267.346 226.68 267.53C227.128 267.713 227.535 267.984 227.878 268.325C228.22 268.666 228.492 269.072 228.678 269.519C228.864 269.966 228.959 270.445 228.959 270.929Z" fill="#C8DDED"/>
<path d="M227.877 287.265C227.88 287.997 227.666 288.712 227.262 289.322C226.858 289.931 226.282 290.407 225.607 290.688C224.932 290.969 224.189 291.044 223.472 290.902C222.755 290.76 222.096 290.408 221.579 289.891C221.062 289.374 220.71 288.715 220.569 287.998C220.427 287.28 220.501 286.537 220.783 285.862C221.064 285.187 221.539 284.611 222.148 284.206C222.758 283.802 223.473 283.588 224.204 283.591C225.178 283.591 226.112 283.978 226.801 284.667C227.49 285.356 227.877 286.291 227.877 287.265Z" fill="#C8DDED"/>
<path d="M186.248 279.277L206.169 279.999C206.169 279.999 207.251 297.402 196.479 297.041C187.33 296.746 185.608 288.791 186.248 279.277Z" fill="#C8DDED"/>
<path d="M175.605 271.618C175.397 280.529 176.322 289.43 178.36 298.107C178.524 298.812 179.573 298.501 179.442 297.795C177.86 289.135 177.015 280.356 176.917 271.552C176.917 271.378 176.848 271.211 176.725 271.088C176.602 270.965 176.435 270.896 176.261 270.896C176.087 270.896 175.92 270.965 175.797 271.088C175.674 271.211 175.605 271.378 175.605 271.552V271.618Z" fill="#386BA0"/>
<path d="M279.198 418.153H269.361C267.59 409.952 264.327 401.751 258.309 395.83C256.537 394.092 254.378 392.797 252.01 392.053C249.641 391.309 247.132 391.136 244.684 391.549C238.601 392.632 234.174 397.306 231.124 402.424C228.277 407.285 226.306 412.609 225.303 418.153H214.449L199.479 509.759H292.365L279.198 418.153ZM231.223 405.868C234.076 401.046 237.863 396.454 243.438 394.846C252.866 392.123 260.359 400.456 264.065 408.099C265.637 411.327 266.909 414.693 267.868 418.153H226.467C227.403 413.836 229.009 409.691 231.223 405.868Z" fill="#E95C80"/>
<path d="M216.104 420.614L202.365 507.069L209.104 502.132L216.63 507.069H219.483L216.104 420.614Z" fill="#D74876"/>
<path d="M168.752 279.573C168.919 280.64 169.188 281.689 169.555 282.706C169.949 283.739 170.391 284.756 170.883 285.74C171.369 286.698 171.918 287.624 172.524 288.512C173.104 289.452 173.791 290.322 174.572 291.103C175.015 291.497 175.753 291.005 175.409 290.464C174.868 289.562 174.146 288.823 173.556 287.905C172.966 286.986 172.457 286.134 171.916 285.215C170.898 283.344 170 281.41 169.227 279.425C169.197 279.369 169.149 279.324 169.091 279.299C169.032 279.274 168.967 279.27 168.905 279.287C168.844 279.304 168.79 279.342 168.753 279.394C168.716 279.446 168.699 279.509 168.702 279.573H168.752Z" fill="#386BA0"/>
<path d="M261.243 310.966L261.375 317.527L266.687 327.745L245.208 377.362C245.208 377.362 240.092 383.922 238.649 386.12C237.07 388.749 236.121 391.707 235.878 394.764C236.042 396.404 239.158 393.895 239.158 393.895C239.158 393.895 239.502 398.225 238.125 399.603C236.747 400.981 238.125 401.768 239.502 401.161C239.502 401.161 240.289 402.637 242.011 401.161C242.011 401.161 243.044 402.801 245.29 400.899C245.461 401.102 245.679 401.261 245.925 401.361C246.172 401.461 246.439 401.5 246.703 401.475C246.968 401.449 247.222 401.359 247.445 401.213C247.667 401.067 247.85 400.869 247.979 400.636C249.356 398.832 250.733 398.733 250.914 393.55C251.094 388.367 250.914 386.383 250.914 386.383C250.914 386.383 286.707 341.031 290.265 331.895C292.659 325.761 290.757 314.361 288.986 308.424C279.952 308.67 270.179 310.441 261.243 310.966Z" fill="#F49B91"/>
<path d="M290.544 315.51C290.139 313.101 289.592 310.718 288.904 308.375C279.886 308.67 270.114 310.441 261.178 310.966L261.309 317.527L261.489 317.871C265.909 315.498 270.771 314.063 275.77 313.657C280.77 313.251 285.799 313.881 290.544 315.51Z" fill="#DE706B"/>
<path d="M262.67 256.987C265.223 257.512 267.55 258.819 269.327 260.727C270.526 262.461 271.348 264.428 271.737 266.5L274.852 278.375C275.672 281.475 276.607 284.789 279.05 286.872C279.607 287.364 280.23 287.757 280.69 288.299C283.346 291.054 281.706 295.745 283.116 299.304C284.198 302.076 287.166 304.225 287.002 307.21L282.526 307.046C282.121 307.054 281.718 306.976 281.345 306.816C280.909 306.517 280.573 306.095 280.378 305.603C279.327 303.466 278.461 301.244 277.787 298.96C277.289 296.761 276.586 294.614 275.689 292.547C274.463 290.517 273.111 288.567 271.639 286.708C268.13 281.508 267.015 275.111 265.08 269.125C263.359 263.745 260.571 260.251 257.095 256.003C258.998 255.99 260.887 256.323 262.67 256.987Z" fill="#5B97CC"/>
<path d="M194.92 250.049C189.833 249.409 184.669 250.269 180.064 252.524C175.459 254.78 171.612 258.332 168.998 262.744C168.227 263.835 167.893 265.175 168.063 266.5C172.097 266.156 175.261 263.072 178.753 261.022C182.568 258.797 186.955 257.753 191.362 258.02C194.855 258.234 198.314 259.283 201.774 258.84C203.791 258.594 210.48 255.462 208.119 252.526C207.168 251.328 203.659 251.788 202.282 251.558C199.806 251.099 197.396 250.361 194.92 250.049Z" fill="#5B97CC"/>
<path d="M223.319 124.262C223.328 112.297 219.49 100.646 212.372 91.0309C205.254 81.4149 195.233 74.345 183.79 70.864C172.346 67.383 160.087 67.676 148.823 71.7C137.559 75.723 127.887 83.265 121.236 93.209C114.586 103.154 111.309 114.975 111.889 126.926C112.47 138.877 116.878 150.324 124.461 159.576C132.045 168.829 142.402 175.396 154.003 178.308C165.605 181.22 177.834 180.323 188.886 175.748L206.283 195.922L201.594 168.334C208.347 163.143 213.819 156.47 217.585 148.828C221.352 141.187 223.314 132.782 223.319 124.262Z" fill="#EEF8FD"/>
<path d="M609.879 171.713C609.882 161.363 613.213 151.288 619.38 142.977C625.546 134.666 634.222 128.56 644.124 125.56C654.026 122.56 664.631 122.826 674.37 126.318C684.11 129.81 692.469 136.344 698.212 144.953C703.955 153.562 706.777 163.791 706.262 174.129C705.747 184.466 701.922 194.363 695.352 202.359C688.782 210.355 679.816 216.024 669.777 218.531C659.739 221.037 649.161 220.247 639.605 216.277L624.553 233.762L628.603 209.88C622.769 205.377 618.047 199.594 614.801 192.977C611.554 186.359 609.87 179.084 609.879 171.713Z" fill="#EEF8FD"/>
<path d="M166.046 138.515H144.174V118.455H174.441C174.45 118.597 174.45 118.74 174.441 118.882V129.724C174.441 130.002 174.441 130.199 174.081 130.298C172.16 130.782 170.405 131.775 169 133.172C167.595 134.569 166.592 136.318 166.096 138.236C166.096 138.236 166.096 138.384 166.046 138.515ZM156.012 131.79C156.012 132.66 156.012 133.431 156.012 134.267C156.044 134.912 156.315 135.522 156.773 135.977C157.231 136.432 157.843 136.7 158.488 136.727H159.57C159.976 136.783 160.39 136.745 160.78 136.616C161.169 136.486 161.523 136.268 161.815 135.98C162.107 135.691 162.328 135.339 162.462 134.951C162.596 134.563 162.638 134.149 162.587 133.742C162.587 133.086 162.587 132.446 162.587 131.774H164.915C165.543 131.777 166.151 131.552 166.627 131.143C167.103 130.733 167.415 130.165 167.506 129.543C167.546 129.047 167.546 128.547 167.506 128.051C167.535 127.662 167.48 127.271 167.345 126.906C167.209 126.54 166.997 126.208 166.721 125.932C166.445 125.657 166.113 125.444 165.748 125.308C165.383 125.173 164.992 125.118 164.603 125.147H162.652C162.652 124.344 162.652 123.507 162.652 122.818C162.65 122.467 162.578 122.12 162.441 121.798C162.303 121.475 162.102 121.183 161.85 120.938C161.598 120.694 161.3 120.502 160.973 120.374C160.647 120.247 160.298 120.185 159.947 120.194H158.914C158.531 120.167 158.147 120.223 157.787 120.358C157.428 120.493 157.101 120.704 156.831 120.976C156.56 121.248 156.351 121.576 156.218 121.936C156.085 122.297 156.032 122.681 156.061 123.064V125.147C155.258 125.147 154.536 125.147 153.815 125.147C153.46 125.141 153.107 125.205 152.777 125.337C152.447 125.468 152.146 125.664 151.893 125.913C151.64 126.162 151.438 126.459 151.301 126.786C151.164 127.114 151.093 127.466 151.093 127.821C151.068 128.28 151.068 128.74 151.093 129.199C151.11 129.896 151.403 130.559 151.906 131.041C152.41 131.524 153.084 131.787 153.782 131.774L156.012 131.79Z" fill="#4F85AA"/>
<path d="M174.49 116.34H144.141C144.141 114.158 143.813 111.977 145.338 110.074C146.139 108.987 146.884 107.86 147.568 106.695C147.638 106.562 147.745 106.451 147.875 106.376C148.006 106.301 148.155 106.263 148.305 106.269H170.309C170.456 106.259 170.603 106.293 170.731 106.366C170.86 106.438 170.964 106.547 171.031 106.679L173.638 110.632C174.21 111.472 174.508 112.469 174.49 113.486C174.474 114.453 174.49 115.388 174.49 116.34Z" fill="#4F85AA"/>
<path d="M170.278 104.218H148.339C148.339 104.038 148.339 103.858 148.339 103.677C148.339 101.676 148.339 99.691 148.339 97.707C148.298 97.117 148.384 96.525 148.591 95.971C148.798 95.417 149.121 94.913 149.539 94.495C149.957 94.077 150.46 93.753 151.014 93.546C151.568 93.339 152.16 93.253 152.75 93.295H165.867C166.452 93.259 167.038 93.348 167.586 93.555C168.134 93.762 168.632 94.083 169.047 94.497C169.463 94.911 169.785 95.408 169.995 95.955C170.204 96.503 170.295 97.089 170.261 97.674C170.261 99.675 170.261 101.692 170.261 103.694C170.31 103.858 170.294 104.071 170.278 104.218Z" fill="#4F85AA"/>
<path d="M144.125 140.549H165.769C165.694 142.405 166.07 144.251 166.866 145.929C167.696 147.632 168.928 149.107 170.457 150.226H169.622H149.043C148.387 150.264 147.732 150.163 147.118 149.929C146.504 149.696 145.945 149.335 145.48 148.87C145.016 148.405 144.656 147.847 144.422 147.233C144.188 146.619 144.087 145.962 144.125 145.306V140.516V140.549Z" fill="#4F85AA"/>
<path d="M195.166 135.76H183.181C183.181 135.596 183.181 135.464 183.181 135.317C183.181 133.365 183.181 131.413 183.181 129.478C183.146 128.002 183.655 126.565 184.61 125.44C185.565 124.315 186.901 123.581 188.362 123.376C189.162 123.244 189.98 123.279 190.766 123.479C191.552 123.678 192.288 124.038 192.929 124.535C193.569 125.032 194.1 125.657 194.488 126.369C194.875 127.081 195.112 127.866 195.183 128.674C195.314 131.003 195.166 133.349 195.166 135.76Z" fill="#4F85AA"/>
<path d="M183.149 137.843H195.134C195.134 140.237 195.233 142.632 195.036 145.01C194.848 146.466 194.131 147.801 193.024 148.762C191.916 149.724 190.493 150.246 189.027 150.227C187.56 150.209 186.151 149.653 185.067 148.664C183.984 147.675 183.301 146.322 183.149 144.863C183.001 142.648 183.149 140.434 183.149 138.302C183.133 138.149 183.133 137.995 183.149 137.843Z" fill="#4F85AA"/>
<path d="M182.329 148.455C180.808 149.584 178.97 150.208 177.076 150.237C175.181 150.266 173.325 149.7 171.77 148.619C170.125 147.452 168.912 145.774 168.319 143.846C167.726 141.918 167.786 139.848 168.49 137.957L171.048 139.155L180.64 143.731C180.827 143.79 180.988 143.912 181.096 144.077C181.203 144.241 181.251 144.438 181.23 144.633C181.248 145.982 181.628 147.302 182.329 148.455Z" fill="#4F85AA"/>
<path d="M169.211 136.12C169.889 135.075 170.774 134.181 171.812 133.492C172.85 132.804 174.018 132.336 175.245 132.118C177.058 131.762 178.937 131.998 180.606 132.791C180.714 132.844 180.808 132.923 180.879 133.02C180.95 133.117 180.997 133.23 181.016 133.349C181.016 136.022 181.016 138.696 181.016 141.369C181.016 141.468 181.016 141.55 181.016 141.73L169.211 136.12Z" fill="#4F85AA"/>
<path d="M158.046 127.034C158.046 126.246 158.046 125.393 158.046 124.606C158.046 123.819 158.046 123.458 158.046 122.966C158.032 122.866 158.041 122.765 158.073 122.67C158.106 122.574 158.16 122.488 158.232 122.418C158.304 122.348 158.391 122.295 158.487 122.265C158.583 122.235 158.685 122.228 158.784 122.244H159.751C160.374 122.244 160.587 122.457 160.587 123.064C160.587 124.212 160.587 125.361 160.587 126.509V127.198H164.457C165.408 127.198 165.539 127.329 165.539 128.28C165.539 129.724 165.539 129.724 164.08 129.724H160.587V133.447C160.587 134.611 160.587 134.693 159.374 134.693H159.079C158.161 134.693 158.046 134.579 158.046 133.627C158.046 132.676 158.046 131.479 158.046 130.347V129.658H154.209C153.176 129.658 153.061 129.56 153.061 128.526V128.001C153.061 127.329 153.291 127.132 153.963 127.132H157.866L158.046 127.034Z" fill="#4F85AA"/>
<path d="M635.982 181.275C636.097 180.685 636.179 180.094 636.326 179.504C636.826 177.329 637.929 175.34 639.507 173.763L647.541 165.71L647.771 165.513L648.099 165.808L658.478 176.24C658.593 176.331 658.673 176.459 658.703 176.604C658.733 176.748 658.711 176.898 658.641 177.027C657.929 178.865 657.588 180.827 657.638 182.797C657.689 184.768 658.13 186.71 658.937 188.509C659.01 188.626 659.038 188.767 659.014 188.903C658.989 189.039 658.915 189.162 658.805 189.247C658.1 189.919 657.445 190.641 656.723 191.297C655.108 192.83 653.107 193.895 650.934 194.378C648.761 194.861 646.498 194.744 644.386 194.04C642.275 193.336 640.394 192.071 638.945 190.38C637.497 188.689 636.535 186.636 636.162 184.441C636.162 184.129 636.047 183.801 635.982 183.473V181.275Z" fill="#4F85AA"/>
<path d="M660.216 173.78L649.854 163.43L650.115 163.135C652.706 160.543 655.297 157.935 657.904 155.36C659.862 153.389 662.431 152.143 665.19 151.825C667.949 151.508 670.734 152.138 673.089 153.612C675.443 155.086 677.228 157.317 678.148 159.938C679.068 162.559 679.07 165.416 678.154 168.039C674.951 166.872 671.45 166.802 668.203 167.841C664.956 168.881 662.147 170.969 660.216 173.78Z" fill="#4F85AA"/>
<path d="M660.658 183.801H684.925C684.578 186.777 683.151 189.522 680.914 191.514C678.677 193.507 675.787 194.607 672.792 194.607C669.796 194.607 666.906 193.507 664.669 191.514C662.432 189.522 661.005 186.777 660.658 183.801Z" fill="#4F85AA"/>
<path d="M660.643 180.865C661.005 177.895 662.442 175.16 664.681 173.176C666.921 171.192 669.809 170.097 672.801 170.097C675.792 170.097 678.68 171.192 680.92 173.176C683.159 175.16 684.596 177.895 684.958 180.865H660.643Z" fill="#4F85AA"/>
<path d="M644.706 151.505H647.542V148.635H650.412V151.489H653.297V154.359H650.444V157.23H647.575V154.392H644.706V151.505Z" fill="#4F85AA"/>
<path d="M641.786 163.118H644.606V165.939H641.786V163.118Z" fill="#4F85AA"/>
<path d="M638.885 160.1V157.295H641.721V160.1H638.885Z" fill="#4F85AA"/>
<path d="M425.29 284.969C424.326 282.155 422.405 279.769 419.863 278.228C419.23 277.87 418.572 277.558 417.895 277.293C417.098 277.013 416.342 276.627 415.649 276.145C415.085 275.695 414.616 275.138 414.271 274.504H414.944C415.719 274.534 416.488 274.359 417.174 273.996C417.397 273.876 417.576 273.686 417.682 273.455C417.992 272.195 418.103 270.894 418.01 269.6V263.039C418.167 262.103 417.949 261.143 417.403 260.366C417.229 260.172 417 260.034 416.747 259.972C415.486 259.754 414.206 259.666 412.927 259.71H400.958C397.245 259.595 393.529 259.677 389.824 259.956C389.577 260.002 389.35 260.125 389.176 260.308C389.002 260.49 388.891 260.723 388.857 260.973C388.608 263.106 388.532 265.256 388.628 267.402V269.83C388.481 271.202 388.678 272.588 389.201 273.865C389.386 274.094 389.649 274.246 389.939 274.291C390.569 274.401 391.204 274.478 391.841 274.521V274.652C390.986 275.852 389.767 276.744 388.365 277.194C386.473 277.953 384.781 279.141 383.424 280.663C382.068 282.186 381.082 284.002 380.544 285.969C380.228 287.59 380.102 289.241 380.167 290.89V295.073H426.077V292.694C426.213 290.094 425.948 287.488 425.29 284.969ZM393.235 262.006H398.334V269.928H393.235C392.784 267.329 392.784 264.671 393.235 262.072V262.006ZM418.206 290.152C414.927 290.152 410.91 290.054 405.631 290.054H387.168C387.035 289.052 387.153 288.033 387.511 287.089C387.868 286.144 388.455 285.303 389.218 284.641C389.848 284.188 390.538 283.824 391.267 283.558C391.743 283.345 392.251 283.132 392.71 282.886C394.38 282.069 395.839 280.88 396.976 279.41C398.113 277.939 398.898 276.228 399.269 274.406H406.696C407.074 276.205 407.844 277.898 408.953 279.364C410.061 280.83 411.48 282.033 413.107 282.886C413.576 283.129 414.064 283.332 414.567 283.493C415.088 283.672 415.593 283.897 416.075 284.165C416.808 284.597 417.431 285.191 417.897 285.902C418.364 286.613 418.66 287.422 418.764 288.266C418.83 288.977 418.862 289.682 418.862 290.382C418.669 290.234 418.433 290.153 418.19 290.152H418.206ZM425.962 332.6V306.669H412.255V325.498H387.398V306.669H380.085V318.938C379.937 329.583 380.003 336.603 380.347 337.669C380.742 338.802 381.448 339.8 382.385 340.549C383.322 341.298 384.452 341.766 385.643 341.9C386.602 342.001 387.565 342.045 388.529 342.032C389.497 342.032 390.497 342.032 391.464 342.032C392.431 342.032 393.432 342.032 394.415 342.032H411.582C412.533 342.032 413.517 342.032 414.452 342.032C415.386 342.032 416.403 342.032 417.37 342.032C418.338 342.032 419.42 342.032 420.256 341.917C421.319 341.834 422.341 341.474 423.222 340.872C424.102 340.271 424.809 339.449 425.273 338.489C425.894 336.637 426.118 334.676 425.929 332.732L425.962 332.6ZM425.962 298.337H412.255V303.257H425.962V298.337ZM387.398 300.895V298.451H380.085V303.372H387.398V300.895Z" fill="#4F85AA"/>
<path d="M404.17 303.307H395.251V301.666C395.245 301.516 395.269 301.365 395.323 301.224C395.376 301.083 395.458 300.955 395.562 300.846C395.676 300.715 395.818 300.611 395.976 300.54C396.135 300.469 396.307 300.434 396.48 300.436H402.941C403.114 300.436 403.285 300.472 403.444 300.543C403.602 300.614 403.743 300.717 403.859 300.846C404.056 301.074 404.166 301.365 404.17 301.666V303.307Z" fill="#231F20"/>
<path d="M410.089 307.587V314.017C410.085 314.342 409.954 314.652 409.725 314.882C409.495 315.112 409.184 315.243 408.86 315.247H404.17V319.922C404.166 320.247 404.035 320.557 403.805 320.787C403.576 321.017 403.265 321.148 402.941 321.152H396.48C396.154 321.152 395.842 321.022 395.611 320.792C395.38 320.561 395.251 320.248 395.251 319.922V315.231H390.561C390.234 315.231 389.919 315.102 389.686 314.871C389.453 314.641 389.32 314.328 389.315 314.001V307.555C389.32 307.381 389.36 307.209 389.434 307.051C389.507 306.893 389.612 306.752 389.742 306.636H409.679C409.811 306.757 409.916 306.904 409.986 307.068C410.057 307.232 410.092 307.409 410.089 307.587Z" fill="#4F85AA"/>
<path d="M468.067 303.356H339.864C339.199 303.356 338.56 303.091 338.09 302.621C337.62 302.15 337.355 301.512 337.355 300.846C337.355 300.181 337.62 299.542 338.09 299.072C338.56 298.601 339.199 298.337 339.864 298.337H468.067C468.732 298.337 469.37 298.601 469.841 299.072C470.311 299.542 470.575 300.181 470.575 300.846C470.575 301.512 470.311 302.15 469.841 302.621C469.37 303.091 468.732 303.356 468.067 303.356Z" fill="#4F85AA"/>
</g>
<defs>
<clipPath id="clip0_367_1845">
<rect width="761.414" height="656.386" fill="white" transform="translate(0 0.614258)"/>
</clipPath>
</defs>
</svg>
